<svg width="341" height="41" viewBox="0 0 341 41" fill="none" xmlns="http://www.w3.org/2000/svg">
<path d="M4.08323 0.0763343C4.99062 -0.0559778 5.67116 -0.0162851 6.12485 0.195412C6.17823 0.301261 6.25829 0.420341 6.36504 0.552651C6.49848 0.526189 6.69864 0.526189 6.96552 0.552651C6.91214 0.552651 6.92548 0.53942 7.00555 0.512958C7.08561 0.460035 7.15233 0.433573 7.20571 0.433573C7.36583 0.40711 7.64605 0.420341 8.04637 0.473266C8.47338 0.526189 8.78029 0.552651 8.9671 0.552651C9.28735 0.473266 9.48751 0.433573 9.56758 0.433573C10.4216 0.512958 12.7301 0.552651 16.4931 0.552651C16.3863 0.552651 16.4664 0.512958 16.7332 0.433573C17.8008 0.327724 18.6414 0.367417 19.2552 0.552651C19.3353 0.684961 19.4554 0.830504 19.6155 0.989277C19.8023 1.12159 20.1359 1.2142 20.6163 1.26713C21.1234 1.32005 21.4703 1.39944 21.6572 1.50529C21.8707 1.79637 22.1909 2.11392 22.6179 2.45793C22.778 2.51085 22.9649 2.48439 23.1784 2.37854C23.3919 2.27269 23.5253 2.21976 23.5787 2.21976L24.8597 3.52964V3.7678C24.9931 3.74134 25.1533 3.74134 25.3401 3.7678L25.4602 3.88688C25.4602 4.01919 25.4602 4.20442 25.4602 4.44258C25.5135 4.68074 25.8338 4.99829 26.4209 5.39522C26.3942 5.52753 26.3142 5.6863 26.1807 5.87154C25.9672 5.97739 25.6069 6.13616 25.0999 6.34786C25.0999 6.50663 25.0999 6.70509 25.0999 6.94325C25.1266 6.96972 25.4068 7.16818 25.9405 7.53865C25.6737 7.8562 25.5402 8.09436 25.5402 8.25313C25.5402 8.35898 25.5936 8.43836 25.7004 8.49129C25.3 8.75591 25.0865 8.91468 25.0598 8.9676C25.0065 9.28515 24.9397 9.6027 24.8597 9.92024L24.6195 10.1584C24.5394 10.6083 24.5394 11.2301 24.6195 12.024L23.8189 12.3812C23.5787 12.5929 23.4586 13.1089 23.4586 13.9293C23.4586 14.1409 23.4586 14.4188 23.4586 14.7628L23.2184 14.8819C23.1917 15.0671 23.1784 15.2656 23.1784 15.4773C23.1784 15.6625 23.0983 15.7551 22.9382 15.7551C22.8047 15.7551 22.6179 15.7816 22.3777 15.8345C22.271 15.8875 22.1509 16.0595 22.0174 16.3505C21.9107 16.6416 21.7772 16.8004 21.6171 16.8269C21.457 16.8269 21.2301 16.8533 20.9366 16.9062C20.7498 17.1179 20.5496 17.3561 20.3361 17.6207C20.1226 17.6736 19.7623 17.7927 19.2552 17.978C19.0417 17.8986 18.6414 17.8986 18.0543 17.978C17.9742 18.1103 17.8541 18.269 17.694 18.4543C17.5339 18.4807 17.3604 18.4543 17.1736 18.3749C16.9868 18.269 16.84 18.2161 16.7332 18.2161C16.5197 18.3484 16.2395 18.5072 15.8926 18.6924C15.6524 18.7454 15.2921 18.7321 14.8117 18.6527C14.1979 18.5998 13.8109 18.5734 13.6508 18.5734C13.3572 18.5734 13.1171 18.613 12.9302 18.6924C12.8502 18.8247 12.7301 18.9835 12.57 19.1688C12.9169 19.8568 12.9569 20.3992 12.69 20.7962C12.5833 20.8491 12.4632 20.9285 12.3298 21.0343C12.3565 21.1402 12.3565 21.2593 12.3298 21.3916C12.1696 21.471 12.0095 21.59 11.8494 21.7488C11.8494 21.7753 11.8894 21.815 11.9695 21.8679C11.7827 22.7147 11.7026 23.191 11.7293 23.2968C11.836 23.3233 11.9561 23.363 12.0896 23.4159C12.1429 23.4688 12.1696 23.5482 12.1696 23.6541C12.1696 23.7599 12.183 23.8393 12.2097 23.8922C12.0762 24.0775 11.8761 24.2759 11.6092 24.4876C11.4758 24.4612 11.2756 24.4612 11.0087 24.4876C11.0087 24.4612 10.9687 24.6199 10.8886 24.964C10.9153 24.964 10.9553 25.0433 11.0087 25.2021C11.2222 25.1757 11.5825 25.136 12.0896 25.083C12.2764 25.4006 12.4765 25.8769 12.69 26.512C12.61 26.6443 12.57 26.9221 12.57 27.3455C12.6767 27.3985 12.7968 27.4779 12.9302 27.5837V27.8219C13.1971 27.9542 13.5974 28.0997 14.1312 28.2585C14.318 28.2585 14.5982 28.2585 14.9719 28.2585L15.212 28.4966H15.4522V28.2585C15.6124 28.1791 15.7725 28.0997 15.9326 28.0203C16.0661 27.9674 16.2929 28.0071 16.6132 28.1394C16.6665 28.2717 16.8533 28.4173 17.1736 28.576C17.307 28.5496 17.4805 28.5628 17.694 28.6157V28.8539C17.9075 29.4625 17.9075 29.9388 17.694 30.2828C17.5873 30.3358 17.4672 30.4152 17.3337 30.521C17.3337 30.6268 17.2937 30.7327 17.2136 30.8385C17.1603 30.9179 17.0802 30.9576 16.9734 30.9576C16.8934 30.9576 16.8133 30.9709 16.7332 30.9973C16.6532 31.1296 16.4931 31.2884 16.2529 31.4736C15.9326 31.4472 15.4656 31.4472 14.8518 31.4736L14.6116 31.7118C13.8109 31.9235 13.0503 31.9632 12.3298 31.8309C12.1696 31.725 11.9695 31.6059 11.7293 31.4736C11.1155 31.3413 10.6351 31.2619 10.2881 31.2355C10.1013 31.2355 9.87449 31.3016 9.60761 31.4339C9.34073 31.5398 9.16726 31.5927 9.0872 31.5927C8.74025 31.5398 8.23319 31.5001 7.56599 31.4736L7.4459 31.7118C6.91214 31.6589 6.04479 31.6589 4.84384 31.7118C3.66957 31.7383 2.77553 31.6986 2.16171 31.5927L1.68133 31.3546C1.38777 31.381 0.987449 31.3016 0.48038 31.1164C0.453693 31.0105 0.413661 30.8518 0.360285 30.6401C0.280222 30.2961 0.24019 30.0579 0.24019 29.9256C0.293566 29.6874 0.453693 29.5022 0.720571 29.3699C1.01414 29.2376 1.29436 29.1053 1.56124 28.973C1.6413 28.8407 1.84146 28.6819 2.16171 28.4966C2.56203 28.5231 3.1625 28.4834 3.96314 28.3776C4.31008 28.1659 4.75043 27.9409 5.28418 27.7028C5.28418 27.7028 5.8046 27.7028 6.84542 27.7028C6.97886 27.3852 7.13899 26.9883 7.3258 26.512C7.3258 26.512 7.3258 26.1944 7.3258 25.5594L7.08561 25.4403C7.05892 25.308 7.08561 25.1492 7.16567 24.964C7.24574 24.7787 7.29911 24.6596 7.3258 24.6067C7.27243 24.2098 7.23239 23.6541 7.20571 22.9396C7.20571 22.9131 7.21905 22.8602 7.24574 22.7808C7.29911 22.675 7.3258 22.5691 7.3258 22.4633L7.08561 22.106C6.97886 21.3122 6.97886 20.6771 7.08561 20.2008L7.3258 19.8832C7.24574 19.698 7.20571 19.3804 7.20571 18.9306C7.31246 18.7983 7.43255 18.5204 7.56599 18.097C7.56599 17.9647 7.52596 17.6604 7.4459 17.1841C7.36583 16.6813 7.3258 16.3902 7.3258 16.3108C7.40586 15.9139 7.4459 15.2788 7.4459 14.4056C7.31246 14.2468 7.19236 14.0483 7.08561 13.8102C6.95217 13.3603 6.91214 12.884 6.96552 12.3812L7.20571 11.8255C7.12564 11.3757 7.08561 10.7009 7.08561 9.80116C7.16567 9.40423 7.20571 9.16607 7.20571 9.08669C7.04558 8.95438 6.88545 8.7956 6.72533 8.61037C6.69864 8.45159 6.73867 8.30605 6.84542 8.17374C6.97886 8.04143 7.05892 7.94881 7.08561 7.89589C7.08561 7.73712 7.01889 7.44603 6.88545 7.02264C6.7787 6.57278 6.72533 6.30816 6.72533 6.22878C6.69864 5.85831 6.73867 5.54076 6.84542 5.27614L7.08561 5.15706C7.08561 5.07767 7.00555 4.76013 6.84542 4.20442C6.71198 4.28381 6.51182 4.3235 6.24494 4.3235C6.16488 4.19119 6.04479 4.04565 5.88466 3.88688C5.59109 3.88688 5.15075 3.84718 4.56361 3.7678L4.44352 3.52964C4.23002 3.45025 3.90976 3.33117 3.48276 3.1724V3.05332C3.32263 3.0004 3.12247 2.97393 2.88228 2.97393C2.29515 2.97393 1.53455 3.11948 0.600475 3.41056C0.467036 3.35764 0.266878 3.27825 0 3.1724C0.0800634 2.93424 0.200158 2.577 0.360285 2.10069L0.600475 1.98161C0.627163 1.95514 0.587132 1.75668 0.48038 1.38621C0.773946 1.2539 1.17426 1.13482 1.68133 1.02897C1.89483 1.02897 2.25512 1.10836 2.76219 1.26713C3.1625 0.552651 3.60285 0.15572 4.08323 0.0763343ZM14.9719 3.1724C14.785 3.43702 14.5048 3.82072 14.1312 4.3235C14.0511 4.34997 13.931 4.34997 13.7709 4.3235C13.6908 4.24412 13.6108 4.12504 13.5307 3.96627C13.3706 3.96627 13.1704 3.96627 12.9302 3.96627V4.20442C12.7968 4.25735 12.6367 4.33673 12.4499 4.44258C12.61 4.7072 12.7701 5.10414 12.9302 5.63338C13.0103 5.63338 13.1304 5.67307 13.2905 5.75246C13.2105 5.75246 13.0904 5.75246 12.9302 5.75246C12.8769 5.85831 12.7968 5.97739 12.69 6.1097C12.6634 6.13616 12.4232 6.17585 11.9695 6.22878C12.4232 6.2817 13.0236 6.44047 13.7709 6.70509C13.7709 6.83741 13.8109 6.99618 13.891 7.18141C13.8643 7.2608 13.8243 7.37988 13.7709 7.53865C13.5841 7.59158 13.3839 7.71065 13.1704 7.89589C13.1971 8.13405 13.1971 8.49129 13.1704 8.9676L12.9302 9.20576C12.9836 9.28515 12.9436 9.36454 12.8101 9.44392C13.1037 9.68208 13.2505 9.86732 13.2505 9.99963C13.2505 10.0526 13.2238 10.1055 13.1704 10.1584C13.0103 10.4759 12.7701 10.8729 12.4499 11.3492C12.4232 11.3492 12.4632 11.508 12.57 11.8255C12.5966 11.7991 12.6367 11.8652 12.69 12.024C12.69 12.1298 12.69 12.2489 12.69 12.3812C12.69 12.4077 12.4899 12.5665 12.0896 12.8575C12.3831 12.9898 12.7434 13.228 13.1704 13.572C13.1437 13.7043 13.1437 13.8631 13.1704 14.0483C13.2505 14.3394 13.4507 14.5776 13.7709 14.7628C13.9577 14.8687 14.1712 14.9216 14.4114 14.9216C14.6783 14.9216 15.0386 14.8422 15.4923 14.6834C15.946 14.4982 16.2395 14.4056 16.373 14.4056C16.3997 14.4056 16.5998 14.485 16.9734 14.6437C17.1603 14.6702 17.3738 14.6305 17.6139 14.5247C17.8808 14.3923 18.0676 14.313 18.1744 14.2865C18.4946 14.3659 18.935 14.3659 19.4954 14.2865V14.0483L20.6964 12.5003C20.99 12.5268 21.4303 12.4871 22.0174 12.3812C22.2043 12.3018 22.2977 12.0637 22.2977 11.6667C22.2977 11.2433 22.3243 10.9787 22.3777 10.8729C22.5645 10.82 22.8047 10.7009 23.0983 10.5156L22.9782 10.0393C23.0316 10.0393 23.0716 10.0129 23.0983 9.95994C23.125 9.90701 23.165 9.85409 23.2184 9.80116C23.1917 9.69531 23.1517 9.53654 23.0983 9.32484C22.778 9.06022 22.5378 8.86176 22.3777 8.72945L22.2576 8.61037C22.2576 8.37221 22.2176 8.01497 22.1375 7.53865C21.9507 7.37988 21.7105 7.14172 21.417 6.82417C21.3903 6.63894 21.3102 6.40078 21.1768 6.1097C20.9633 6.05677 20.683 5.93769 20.3361 5.75246C20.3094 5.64661 20.2694 5.52753 20.216 5.39522C20.0292 5.36876 19.749 5.28937 19.3753 5.15706C19.2152 4.94536 18.935 4.66751 18.5347 4.3235C18.4012 4.34997 18.2011 4.34997 17.9342 4.3235L17.8141 4.08534C17.654 4.11181 17.4138 4.11181 17.0935 4.08534L16.8533 3.88688C16.7199 3.88688 16.5197 3.88688 16.2529 3.88688C16.2262 3.86042 16.1061 3.66195 15.8926 3.29148C15.7058 3.26502 15.3989 3.22533 14.9719 3.1724Z" fill="black"/>
<path d="M38.645 6.50663C38.6983 6.50663 38.8451 6.58602 39.0853 6.74479C39.3255 6.8771 39.4723 6.94325 39.5257 6.94325C39.926 6.8374 40.5398 6.79771 41.3671 6.82417C41.6073 7.06233 41.8742 7.28726 42.1678 7.49896C42.3279 7.36665 42.7015 7.2608 43.2887 7.18141C43.6356 7.23434 44.1026 7.45926 44.6898 7.8562C44.7431 7.98851 44.8499 8.13405 45.01 8.29282C45.0634 8.34575 45.1034 8.35898 45.1301 8.33252C45.1301 8.33252 45.1301 8.30605 45.1301 8.25313C45.1301 8.17374 45.1701 8.14728 45.2502 8.17374V8.4119C45.7306 8.67652 46.1976 8.92791 46.6513 9.16607C47.2118 9.48362 47.6121 9.80116 47.8523 10.1187C47.9056 10.1716 48.1458 10.5421 48.5728 11.2301C48.4928 11.2566 48.4527 11.3227 48.4527 11.4286C48.4527 11.6667 48.5595 12.0107 48.773 12.4606C48.9865 12.884 49.16 13.1089 49.2934 13.1354C49.4535 13.1619 49.7338 13.2148 50.1341 13.2942C50.1874 13.3471 50.2675 13.4132 50.3743 13.4926L50.2542 13.7308C50.1474 13.7308 50.0006 13.7308 49.8138 13.7308C49.4936 13.8102 49.3334 14.0483 49.3334 14.4453C49.3334 14.7893 49.3334 15.12 49.3334 15.4376C49.3334 15.4641 49.2934 15.5567 49.2133 15.7154C49.1333 15.8742 49.1066 16.0065 49.1333 16.1124C49.1333 16.1388 49.1733 16.2579 49.2534 16.4696C49.3334 16.6813 49.3601 16.8665 49.3334 17.0253C49.3334 17.0518 49.2667 17.1576 49.1333 17.3429C49.0265 17.5281 48.9865 17.7266 49.0132 17.9383L49.2534 18.1367C49.4135 18.613 49.4402 19.1026 49.3334 19.6054C49.3334 19.7112 49.2267 19.9097 49.0132 20.2008C48.8264 20.4654 48.7463 20.73 48.773 20.9946C48.7997 21.074 48.8931 21.2328 49.0532 21.471C49.24 21.7091 49.3334 21.8811 49.3334 21.987C49.3334 22.1193 49.2667 22.2384 49.1333 22.3442C49.1333 22.3442 48.9465 22.3442 48.5728 22.3442C48.5461 22.4501 48.5328 22.7279 48.5328 23.1778C48.5595 23.6012 48.5728 23.8129 48.5728 23.8129C48.5995 23.8922 48.8531 24.0775 49.3334 24.3686C49.4936 24.5273 49.6937 24.6729 49.9339 24.8052C50.014 24.8316 50.2141 24.8316 50.5344 24.8052C50.8546 24.7523 51.0681 24.7258 51.1749 24.7258L51.295 24.4876C51.5352 24.4347 51.7487 24.4082 51.9355 24.4082C52.6027 24.4082 53.1498 24.964 53.5768 26.0754C53.7102 26.34 53.857 26.7105 54.0171 27.1868C53.9638 27.372 53.9237 27.5705 53.897 27.7822C53.7903 27.8086 53.6435 27.9145 53.4567 28.0997C53.3499 28.1791 53.2432 28.2982 53.1365 28.457C53.1365 28.5628 53.1365 28.7083 53.1365 28.8936C52.9229 29.0524 52.6561 29.2773 52.3358 29.5684C52.4693 29.5684 52.536 29.6345 52.536 29.7668C52.536 30.005 52.3492 30.3887 51.9755 30.9179C51.1482 30.8121 50.4677 30.8915 49.9339 31.1561C49.8005 31.2884 49.587 31.4207 49.2934 31.553C49.0265 31.6853 48.5061 31.7383 47.7322 31.7118C46.9315 31.6853 46.4111 31.6192 46.1709 31.5133C45.9841 31.2487 45.7573 30.9444 45.4904 30.6004C45.3036 30.4152 44.9566 30.2299 44.4496 30.0447C44.2094 29.9388 44.0226 29.8991 43.8891 29.9256C43.1686 30.0315 42.5948 30.2167 42.1678 30.4813V30.7195C42.0076 30.8518 41.8208 30.9973 41.6073 31.1561C41.5006 31.1296 41.3404 31.1296 41.1269 31.1561L41.0068 31.3943C40.74 31.3413 40.3663 31.3016 39.886 31.2752C39.7258 31.381 39.539 31.4869 39.3255 31.5927C39.0053 31.5663 38.5382 31.5663 37.9244 31.5927C37.6041 31.7515 37.1505 31.9103 36.5633 32.069C36.4299 32.069 36.2564 32.0293 36.0429 31.95C35.8294 31.8706 35.696 31.8309 35.6426 31.8309C35.349 31.8838 34.9354 31.9235 34.4016 31.95C34.1881 31.8441 33.9212 31.725 33.601 31.5927C33.254 31.6456 32.7203 31.5795 31.9997 31.3943C31.8396 31.0767 31.6127 30.7327 31.3192 30.3622C31.0523 30.2828 30.6787 30.1373 30.1983 29.9256C29.9314 29.7668 29.5444 29.1582 29.0374 28.0997C28.8506 27.7822 28.6237 27.3323 28.3568 26.7501C28.3835 26.512 28.3835 26.168 28.3568 25.7181C28.3301 25.6387 28.2367 25.4667 28.0766 25.2021C27.9432 24.9375 27.8898 24.6993 27.9165 24.4876C28.0232 24.2495 28.13 23.9452 28.2367 23.5747C28.1567 23.3895 28.1166 23.0455 28.1166 22.5427C28.17 22.4104 28.3168 22.2913 28.557 22.1854C28.8239 22.0531 28.984 21.9473 29.0374 21.8679C29.0374 21.7885 29.0374 21.6827 29.0374 21.5503C29.2242 21.2063 29.451 20.7565 29.7179 20.2008C29.7179 20.042 29.7579 19.8038 29.838 19.4863C29.9981 19.2746 30.5719 18.9438 31.5594 18.494V18.3749C31.7462 18.4014 31.973 18.4014 32.2399 18.3749C32.2933 18.1897 32.3733 17.9647 32.4801 17.7001H32.6803C32.0397 17.5413 31.546 17.3164 31.1991 17.0253C31.1457 16.8401 30.9989 16.6152 30.7587 16.3505C30.7587 16.3505 30.5853 16.2844 30.2383 16.1521C30.1049 16.0991 30.0248 15.9271 29.9981 15.6361C29.9981 15.5567 29.9848 15.4905 29.9581 15.4376C29.8247 15.3582 29.6779 15.1994 29.5177 14.9613C29.4644 14.829 29.5177 14.2203 29.6779 13.1354C29.8647 12.024 30.0115 11.4021 30.1182 11.2698C30.2517 11.1375 30.4251 10.939 30.6386 10.6744C30.6386 10.595 30.6386 10.4892 30.6386 10.3569C31.1457 9.61593 31.4526 9.19253 31.5594 9.08669C31.6661 8.98084 32.0664 8.71622 32.7603 8.29282C33.4542 7.86943 33.8545 7.6445 33.9613 7.61804C34.1214 7.72389 34.455 7.80327 34.9621 7.8562C35.2022 7.6445 35.5492 7.41957 36.0029 7.18141C36.2964 7.20787 36.7101 7.20787 37.2439 7.18141C37.3506 7.15495 37.5641 7.03587 37.8844 6.82417C38.2313 6.61248 38.4848 6.50663 38.645 6.50663ZM38.5249 10.7935L38.2847 11.0316C37.9911 11.0052 37.5775 11.0052 37.0437 11.0316C36.8302 11.164 36.5633 11.3095 36.2431 11.4683H36.0029C36.0029 11.7594 35.9228 12.1431 35.7627 12.6194C35.7627 12.6194 35.6159 12.6194 35.3223 12.6194C35.2156 13.1486 35.2156 13.5588 35.3223 13.8499C35.5092 14.1145 35.5892 14.2336 35.5625 14.2071C35.5092 14.1542 35.4291 14.1806 35.3223 14.2865C35.3757 14.5511 35.3757 14.7496 35.3223 14.8819C35.1622 14.9877 35.0154 15.1333 34.882 15.3185C34.9087 15.6361 34.9087 16.1256 34.882 16.7872C36.5633 16.9195 37.6575 16.9195 38.1646 16.7872L38.2847 16.549C38.7651 16.2579 39.2188 16.0727 39.6458 15.9933C40.0461 15.9404 40.6199 15.9801 41.3671 16.1124C41.3938 15.9271 41.4739 15.6228 41.6073 15.1994C41.4739 15.1994 41.9009 15.2259 42.8883 15.2788C43.4488 15.2788 43.8224 15.2127 44.0092 15.0804C44.116 15.001 44.196 14.8157 44.2494 14.5247C44.3295 14.2336 44.3962 13.9689 44.4496 13.7308C44.1293 13.572 43.6356 13.3074 42.9684 12.9369C42.915 12.8575 42.835 12.7517 42.7282 12.6194C42.5948 12.5929 42.3679 12.5135 42.0477 12.3812C41.9409 12.196 41.7141 11.9711 41.3671 11.7064C40.9401 11.6535 40.3263 11.5344 39.5257 11.3492C39.499 11.3492 39.3789 11.2301 39.1654 10.992C39.0053 10.8332 38.7918 10.767 38.5249 10.7935ZM42.6081 20.2802V20.5183C42.3412 20.5977 41.8475 20.7565 41.1269 20.9946C41.0202 21.074 40.8734 21.1799 40.6866 21.3122C40.0995 21.3122 39.2188 21.3519 38.0445 21.4313C37.5641 21.6165 36.9236 21.8414 36.123 22.106C36.0429 22.0796 35.9228 22.0796 35.7627 22.106C35.736 22.2384 35.6693 22.3839 35.5625 22.5427C35.2957 22.6485 34.9487 22.8073 34.5217 23.019C34.5217 23.2042 34.5351 23.3895 34.5617 23.5747C34.5617 23.7335 34.4683 23.8525 34.2815 23.9319C34.0947 23.9055 33.8278 23.9055 33.4809 23.9319L33.3608 24.1304C33.3608 24.1304 33.254 24.1304 33.0405 24.1304C33.0405 24.2362 33.0806 24.395 33.1606 24.6067C33.3741 24.7126 33.641 24.8581 33.9613 25.0433C33.9346 25.1492 33.9346 25.2683 33.9613 25.4006C34.0413 25.3741 34.1481 25.3741 34.2815 25.4006C34.415 25.4535 34.5884 25.6387 34.8019 25.9563C35.0154 26.2738 35.1889 26.4591 35.3223 26.512C35.4291 26.512 35.5759 26.512 35.7627 26.512C36.2698 26.6443 36.6167 26.684 36.8035 26.6311C36.9103 26.5252 37.0571 26.4061 37.2439 26.2738C37.9377 26.1415 38.8184 26.2606 39.886 26.6311C39.886 26.6311 39.886 26.6575 39.886 26.7105C39.886 26.7369 39.926 26.7501 40.0061 26.7501V26.6311C40.5665 26.34 40.8734 26.1548 40.9268 26.0754C40.9001 25.9166 40.9268 25.6917 41.0068 25.4006H41.247C41.3538 25.2153 41.5139 25.0169 41.7274 24.8052C41.7274 24.8052 42.021 24.8052 42.6081 24.8052C42.875 24.1172 43.342 23.5615 44.0092 23.1381C43.9025 23.0851 43.9292 23.0058 44.0893 22.8999C44.0893 22.8734 44.0226 22.7544 43.8891 22.5427H44.0893C44.116 22.4633 44.156 22.3177 44.2094 22.106C44.0226 21.9737 43.7957 21.7488 43.5288 21.4313C43.4755 21.1931 43.3954 20.9417 43.2887 20.6771C43.1819 20.386 42.9551 20.2537 42.6081 20.2802Z" fill="black"/>
<path d="M57.195 8.37221C57.4618 8.34575 57.7821 8.39867 58.1557 8.53098C58.556 8.66329 58.8096 8.72945 58.9163 8.72945C58.943 8.72945 59.0231 8.68975 59.1565 8.61037C59.29 8.53098 59.3567 8.49129 59.3567 8.49129C59.5168 8.46482 59.7036 8.50452 59.9171 8.61037C60.1306 8.68975 60.2507 8.72945 60.2774 8.72945C60.3041 8.72945 60.3975 8.68975 60.5576 8.61037C60.7444 8.53098 60.8379 8.49129 60.8379 8.49129C61.1314 8.43836 61.5451 8.47806 62.0788 8.61037C62.6393 8.74268 62.9862 8.84853 63.1197 8.92791C63.4132 9.11315 63.6134 9.37777 63.7201 9.72178C63.6935 9.88055 63.6935 10.079 63.7201 10.3172C63.8002 10.3701 63.907 10.4363 64.0404 10.5156C64.334 10.9655 64.4941 11.3095 64.5208 11.5477C64.5208 11.6006 64.4807 11.6535 64.4007 11.7064C64.3206 11.7329 64.2806 11.7594 64.2806 11.7858C64.334 12.0769 64.334 12.5268 64.2806 13.1354C64.1738 13.2412 64.0537 13.3471 63.9203 13.4529C63.947 13.9028 63.947 14.5511 63.9203 15.3979C63.8669 15.6096 63.8002 15.8742 63.7201 16.1918C63.8536 16.2976 63.9203 16.3638 63.9203 16.3902L63.7201 16.5093C63.7201 16.8269 63.6 17.2106 63.3599 17.6604C63.2798 17.7133 63.3198 17.8192 63.4799 17.978C63.56 18.2426 63.6935 18.4014 63.8803 18.4543C64.0671 18.4807 64.2806 18.5204 64.5208 18.5734C64.4941 18.8115 64.414 19.182 64.2806 19.6848C64.1471 19.8171 64.0004 20.042 63.8402 20.3595C63.7869 20.7036 63.8135 21.0476 63.9203 21.3916C64.0804 21.471 64.2405 21.5768 64.4007 21.7091C64.3206 22.1325 64.2806 22.3574 64.2806 22.3839C64.334 22.5427 64.414 22.7411 64.5208 22.9793C64.4674 23.0058 64.2672 23.1116 63.9203 23.2968C63.8135 23.5615 63.7869 23.9055 63.8402 24.3289C63.947 24.4612 64.0537 24.6067 64.1605 24.7655C64.0804 25.0566 64.0804 25.5064 64.1605 26.1151C64.2406 26.3268 64.4541 26.4855 64.801 26.5914C65.1479 26.6708 65.3481 26.7369 65.4015 26.7898C65.4815 27.0015 65.6016 27.2397 65.7618 27.5043C65.7618 27.5043 66.0286 27.5043 66.5624 27.5043C66.7492 27.5837 66.9761 27.544 67.2429 27.3852C67.3497 27.1735 67.4965 26.9486 67.6833 26.7105C67.71 26.684 68.0569 26.5649 68.7241 26.3532C68.644 26.2209 68.604 25.996 68.604 25.6784C68.6574 25.6784 68.7374 25.599 68.8442 25.4403C69.3246 25.3609 70.0051 25.2153 70.8858 25.0036C70.9392 24.4479 70.9392 23.9584 70.8858 23.535C71.0192 23.535 71.2061 23.5218 71.4463 23.4953C71.7131 23.4424 71.9133 23.4159 72.0467 23.4159C72.2869 22.4633 72.7006 21.8282 73.2877 21.5106V21.2725C73.4212 21.2725 73.5679 21.2328 73.7281 21.1534C73.7281 21.0476 73.7281 20.9417 73.7281 20.8359C73.8615 20.8094 74.0216 20.7697 74.2084 20.7168C74.2084 20.5845 74.2485 20.4257 74.3285 20.2405H74.5287C74.5287 20.2405 74.5287 20.0552 74.5287 19.6848C74.502 19.6848 74.462 19.7641 74.4086 19.9229C73.9282 19.7377 73.7014 19.5128 73.7281 19.2481C73.8081 19.1423 73.8882 19.0232 73.9683 18.8909C74.3419 18.8909 74.5287 18.8909 74.5287 18.8909C74.4486 18.6263 74.3819 18.097 74.3285 17.3032C74.3819 17.2767 74.4486 17.237 74.5287 17.1841C74.5287 17.1841 74.5287 16.893 74.5287 16.3108C74.502 16.3108 74.462 16.377 74.4086 16.5093C74.1684 16.5358 73.7147 16.5755 73.0475 16.6284V16.5093C73.0208 16.3505 72.9808 16.1653 72.9274 15.9536C72.9808 15.9536 73.0208 15.9404 73.0475 15.9139C73.1009 15.8874 73.1409 15.861 73.1676 15.8345C73.3278 15.9404 73.5146 16.0595 73.7281 16.1918C74.1818 16.2182 74.4086 16.0198 74.4086 15.5964C74.4086 15.517 74.3819 15.2788 74.3285 14.8819C74.2752 14.5643 74.2752 14.313 74.3285 14.1277C74.3819 14.0748 74.4486 13.9689 74.5287 13.8102C74.2618 13.7837 73.7681 13.7043 73.0475 13.572C72.8607 13.4132 72.5938 13.228 72.2469 13.0163C71.4196 12.7517 70.5522 12.7517 69.6448 13.0163C69.2979 13.1222 69.071 13.1619 68.9643 13.1354C68.8842 13.056 68.7641 12.9766 68.604 12.8972C68.8976 12.0769 68.8976 10.9126 68.604 9.40423C68.6574 9.29838 68.7374 9.1793 68.8442 9.04699C69.0577 8.91468 69.3513 8.84853 69.7249 8.84853C69.9117 8.84853 70.2053 8.87499 70.6056 8.92791C71.0326 8.98084 71.3529 9.0073 71.5664 9.0073C71.7799 9.0073 71.9667 8.98084 72.1268 8.92791C72.3937 8.7956 72.7406 8.65006 73.1676 8.49129C73.8615 8.38544 74.4353 8.42513 74.889 8.61037C74.969 8.71622 75.0758 8.82206 75.2092 8.92791C75.5562 8.90145 76.0499 8.94114 76.6904 9.04699C76.9039 9.15284 77.1441 9.43069 77.411 9.88055C77.5978 10.1981 77.7846 10.5289 77.9714 10.8729C78.0515 10.9787 78.1983 11.164 78.4118 11.4286C78.4118 11.6932 78.3717 11.7726 78.2917 11.6667C78.3184 11.7991 78.2783 11.8387 78.1716 11.7858C78.1716 11.8123 78.1316 11.9181 78.0515 12.1034C77.9981 12.2621 77.9714 12.3812 77.9714 12.4606C77.9714 12.4871 78.0782 12.712 78.2917 13.1354C78.2383 13.4 78.1983 13.7705 78.1716 14.2468L78.2917 14.485L78.5319 14.8422C78.4785 15.3979 78.5185 15.9933 78.652 16.6284C78.6253 16.8401 78.5852 17.1047 78.5319 17.4223C78.3184 18.3749 78.2383 18.9438 78.2917 19.1291C78.3984 19.2349 78.5185 19.3804 78.652 19.5657C78.5719 19.9626 78.4918 20.4919 78.4118 21.1534C78.4651 21.815 78.6253 22.3839 78.8922 22.8602C78.9722 22.9131 79.079 22.9793 79.2124 23.0587C79.2124 23.1645 79.2124 23.2836 79.2124 23.4159C79.0256 23.5482 78.8388 23.7335 78.652 23.9716C78.5719 24.3686 78.652 24.5935 78.8922 24.6464L78.5319 25.4403C78.6653 25.652 79.0389 26.0357 79.6527 26.5914C79.5994 26.8825 79.5727 27.028 79.5727 27.028C80.0798 27.0809 80.7336 27.2132 81.5342 27.4249C82.3349 27.6366 82.8019 27.8351 82.9354 28.0203C83.0955 28.1791 83.2289 28.457 83.3357 28.8539C83.4691 29.2508 83.6159 29.5154 83.776 29.6477C83.8027 29.6742 83.7226 29.7801 83.5358 29.9653C83.5358 30.177 83.4691 30.4416 83.3357 30.7592C83.1488 30.9179 82.8019 31.037 82.2949 31.1164C81.9212 31.1958 81.5342 31.2619 81.1339 31.3149C80.1999 31.553 78.8788 31.6721 77.1708 31.6721C76.5303 31.6721 76.1033 31.6324 75.8898 31.553C75.783 31.3678 75.5962 31.1429 75.3293 30.8782C75.0091 30.8253 74.5154 30.6798 73.8482 30.4416C73.688 30.177 73.3811 29.9124 72.9274 29.6477C72.7673 29.6213 72.4737 29.7668 72.0467 30.0844C71.513 30.5342 71.2461 30.7592 71.2461 30.7592V30.9973C70.9258 30.9709 70.4588 31.0105 69.845 31.1164C69.6849 31.2752 69.458 31.4604 69.1645 31.6721C69.0043 31.5927 68.7775 31.5133 68.4839 31.4339C68.0569 31.6192 67.4965 31.8176 66.8026 32.0293C66.4023 32.0558 66.042 31.9896 65.7217 31.8309C65.4015 31.6986 65.1079 31.5663 64.841 31.4339C64.6275 31.4339 64.3206 31.3678 63.9203 31.2355C63.8936 31.1032 63.8269 30.9444 63.7201 30.7592C63.56 30.7327 63.3332 30.6533 63.0396 30.521C62.9062 30.3093 62.6393 30.0579 62.239 29.7668C61.9988 29.7933 61.6518 29.7933 61.1981 29.7668C60.9046 29.661 60.7311 29.3302 60.6777 28.7745C60.6244 28.2982 60.571 27.8351 60.5176 27.3852C60.4109 27.2794 60.2908 27.1603 60.1573 27.028C59.7837 26.1812 59.5969 25.4932 59.5969 24.964C59.5969 24.6993 59.6369 24.4479 59.717 24.2098L59.9572 24.0907C60.0639 23.8525 60.1707 23.5085 60.2774 23.0587C60.1973 21.8679 60.1173 21.2725 60.0372 21.2725V21.0343C60.0372 20.902 60.0906 20.7697 60.1974 20.6374C60.3308 20.4786 60.3975 20.386 60.3975 20.3595C60.3441 20.1743 60.3041 19.8303 60.2774 19.3275C60.4909 18.9835 60.7178 18.5734 60.958 18.097C61.0113 17.8589 60.9313 17.6075 60.7178 17.3429C60.5309 17.0782 60.4242 16.9195 60.3975 16.8666C60.4242 16.6549 60.4242 16.3505 60.3975 15.9536C60.2641 15.7948 60.1173 15.5699 59.9572 15.2788C60.0639 14.7496 60.0639 14.0351 59.9572 13.1354H59.717C59.5568 13.0031 59.33 12.8443 59.0364 12.6591C58.556 12.7385 57.9022 12.7782 57.0749 12.7782C56.9414 12.7517 56.7146 12.5268 56.3943 12.1034C56.341 12.0769 56.2342 11.9975 56.0741 11.8652C56.2342 11.336 56.3009 11.0052 56.2742 10.8729C56.1942 10.7406 56.1141 10.6215 56.034 10.5156C55.8739 10.3039 55.8072 10.079 55.8339 9.84086C55.8606 9.52331 56.0074 9.20576 56.2742 8.88822C56.5678 8.57067 56.8747 8.39867 57.195 8.37221Z" fill="black"/>
<path d="M93.4656 0.0763343C93.599 0.0498709 93.9459 0.116026 94.5064 0.2748C95.0935 0.433572 95.4405 0.565883 95.5472 0.671731C95.6807 0.77758 95.8408 0.909891 96.0276 1.06866C96.3212 1.12159 96.5613 1.06866 96.7482 0.90989C96.935 0.724656 97.0417 0.632039 97.0684 0.632039C97.2552 0.579114 97.4687 0.592344 97.7089 0.671731C97.869 0.724655 98.0292 0.79081 98.1893 0.870197C98.1626 1.00251 98.1626 1.18774 98.1893 1.4259C98.3227 1.53175 98.4695 1.67729 98.6297 1.86253C98.7898 2.15361 98.7898 2.66962 98.6297 3.41056C98.8165 3.48995 99.1234 3.60903 99.5504 3.7678C99.5237 3.79426 99.5237 3.90011 99.5504 4.08534C99.3903 4.08534 99.1634 4.12504 98.8698 4.20442C98.7097 4.38966 98.5229 4.61459 98.3094 4.87921C98.6297 5.56722 98.8165 6.12293 98.8698 6.54632C98.8165 6.65217 98.7764 6.83741 98.7497 7.10203L98.8698 7.30049C98.7097 7.56511 98.5496 7.86943 98.3895 8.21344C98.3895 8.2399 98.4295 8.35898 98.5096 8.57067C98.6163 8.75591 98.6697 8.88822 98.6697 8.9676C98.6697 9.04699 98.6563 9.08669 98.6297 9.08669C98.4428 9.219 98.4028 9.48362 98.5096 9.88055C98.7231 10.0393 98.9499 10.2246 99.1901 10.4363C99.2168 10.5686 99.2968 10.7935 99.4303 11.111C99.2968 11.164 99.11 11.2433 98.8698 11.3492C99.11 12.3283 99.1768 13.2148 99.07 14.0086C98.9633 14.1939 98.8565 14.4188 98.7497 14.6834C98.7764 15.001 98.7764 15.4773 98.7497 16.1124C98.7497 16.1124 98.7097 16.1653 98.6297 16.2712C98.5496 16.3505 98.5096 16.4432 98.5096 16.549C98.643 16.6549 98.7898 16.8136 98.9499 17.0253C98.9499 17.1047 98.9499 17.2502 98.9499 17.4619L99.1901 17.581C99.1901 17.6869 99.1901 17.8324 99.1901 18.0176C99.3769 18.3087 99.6038 18.7586 99.8706 19.3672C99.844 19.4466 99.8039 19.5525 99.7505 19.6848C99.6171 19.7112 99.4303 19.7906 99.1901 19.9229C99.1634 20.4257 99.2034 21.0873 99.3102 21.9076C99.4436 21.9605 99.6304 22.0399 99.8706 22.1457C100.004 22.3574 100.231 22.6485 100.551 23.019C100.685 23.0455 100.831 23.1248 100.992 23.2571C100.992 23.4688 100.992 23.7335 100.992 24.051V24.2495C101.178 24.567 101.779 25.1624 102.793 26.0357C102.793 26.1415 102.833 26.2474 102.913 26.3532C103.127 26.4591 103.367 26.512 103.634 26.512C103.847 26.512 104.167 26.4855 104.594 26.4326C105.021 26.3532 105.355 26.3135 105.595 26.3135C105.809 26.3135 105.995 26.3268 106.156 26.3532C106.396 26.512 106.663 26.6708 106.956 26.8295C107.223 26.856 107.557 26.8825 107.957 26.9089C108.064 27.1471 108.171 27.4514 108.277 27.8219C108.277 27.9542 108.277 28.1394 108.277 28.3776C108.437 28.457 108.598 28.5628 108.758 28.6951C108.784 28.801 108.784 29.092 108.758 29.5684C108.704 30.0447 108.664 30.3225 108.638 30.4019C108.424 30.4813 108.117 30.6269 107.717 30.8385C107.663 30.9444 107.557 31.0899 107.397 31.2752C106.783 31.6456 105.729 31.8309 104.234 31.8309C104.074 31.8309 103.754 31.7912 103.273 31.7118C102.793 31.6324 102.446 31.5927 102.233 31.5927C102.152 31.6192 101.926 31.6721 101.552 31.7515C101.178 31.8309 100.885 31.8573 100.671 31.8309L100.311 31.5927C100.044 31.6192 99.6304 31.6192 99.07 31.5927C98.8298 31.5398 98.5763 31.4736 98.3094 31.3943C97.8557 31.5001 97.0684 31.5663 95.9475 31.5927L95.4671 31.3943C94.7733 31.2619 93.9993 31.3016 93.1453 31.5133C91.0637 31.9367 89.329 32.0426 87.9412 31.8309C87.6476 31.6986 87.2473 31.5133 86.7402 31.2752C86.4467 31.1958 86.0997 31.0502 85.6994 30.8385C85.3525 30.3358 85.3124 29.5948 85.5793 28.6157C85.9263 27.7954 86.1264 27.3455 86.1798 27.2662C86.2599 27.1868 87.0605 27.028 88.5817 26.7898C90.1029 26.5252 91.0503 26.4194 91.4239 26.4723L91.6641 26.7105C91.7709 26.6575 91.9177 26.6178 92.1045 26.5914C92.1579 26.5914 92.3981 26.6575 92.8251 26.7898C93.172 26.8692 93.4656 26.8825 93.7058 26.8295C93.8392 26.7766 94.0127 26.5649 94.2262 26.1944C94.4664 25.7975 94.6665 25.5594 94.8266 25.48H94.9067C94.9067 25.48 94.9067 25.2153 94.9067 24.6861C94.88 24.6596 94.8133 24.6332 94.7065 24.6067C94.7065 24.3156 94.7065 23.9055 94.7065 23.3762C94.6799 23.2968 94.6131 23.0455 94.5064 22.6221C94.3996 22.3045 94.3463 22.0267 94.3463 21.7885L94.5864 21.471C94.5598 21.2328 94.5598 20.8623 94.5864 20.3595C94.6932 20.1478 94.8 19.8832 94.9067 19.5657C94.8533 19.354 94.8533 18.9835 94.9067 18.4543L95.1469 18.3352C95.2003 18.097 95.227 17.8192 95.227 17.5016C95.227 17.1312 95.1736 16.6152 95.0668 15.9536C94.9868 15.2656 94.9334 14.8025 94.9067 14.5643C94.88 13.3206 94.9601 12.3548 95.1469 11.6667C95.307 11.3492 95.3471 11.2037 95.267 11.2301C95.1602 10.8596 95.0401 10.4495 94.9067 9.99963C94.88 9.68208 94.9467 9.391 95.1069 9.12638C95.267 8.8353 95.3604 8.67652 95.3871 8.65006C95.3871 8.65006 95.3871 8.2002 95.3871 7.30049C95.3337 7.30049 95.2536 7.27403 95.1469 7.22111C95.1736 6.8771 95.1736 6.38755 95.1469 5.75246C95.0135 5.62015 94.8667 5.43491 94.7065 5.19675V4.99829C94.6799 4.94536 94.5598 4.86598 94.3463 4.76013C94.2395 4.68074 94.1328 4.60135 94.026 4.52197C94.026 4.52197 93.8926 4.42935 93.6257 4.24412C93.3855 4.03242 93.0652 3.83395 92.6649 3.64872C92.5315 3.62226 92.3046 3.68841 91.9844 3.84718C91.6641 4.00596 91.4773 4.08534 91.4239 4.08534C90.9969 4.19119 90.6233 4.23089 90.3031 4.20442L89.9828 3.96627C89.5825 4.04565 89.0621 4.12504 88.4216 4.20442C87.9412 4.20442 87.4341 4.05888 86.9004 3.7678C86.3666 3.47672 86.0063 3.1724 85.8195 2.85486C85.8195 2.74901 85.7795 2.56377 85.6994 2.29915C85.6727 2.21977 85.6327 2.11392 85.5793 1.98161C85.6327 1.55821 85.8996 1.2142 86.38 0.949582V0.751117C86.4867 0.724655 86.6735 0.684962 86.9404 0.632039C87.7143 0.340954 88.3148 0.235106 88.7418 0.314493L88.982 0.512958C89.3556 0.618807 89.8761 0.618807 90.5433 0.512958C90.65 0.460035 90.7834 0.40711 90.9436 0.354185C91.1037 0.274798 91.2638 0.261568 91.4239 0.314493C91.4773 0.314493 91.5974 0.40711 91.7842 0.592344C91.9977 0.777579 92.1846 0.870197 92.3447 0.870197L92.4648 0.632039C92.5448 0.632039 92.6516 0.632039 92.785 0.632039C92.8918 0.446803 93.1186 0.261568 93.4656 0.0763343ZM109.758 28.2585C109.839 28.629 109.919 29.0391 109.999 29.489C109.945 29.5154 109.865 29.6213 109.758 29.8065C109.305 29.7536 109.118 29.7271 109.198 29.7271C109.091 29.6478 108.971 29.5684 108.838 29.489C108.864 29.3037 108.944 29.0391 109.078 28.6951C109.185 28.7216 109.305 28.7216 109.438 28.6951C109.492 28.5893 109.598 28.4437 109.758 28.2585Z" fill="black"/>
<path d="M119.942 8.21344C119.969 8.18697 120.716 8.21344 122.184 8.29282C122.451 8.26636 122.824 8.2399 123.305 8.21344C123.598 8.34575 123.972 8.49129 124.426 8.65006C124.613 8.51775 124.946 8.39867 125.426 8.29282C125.72 8.31928 126.014 8.49129 126.307 8.80883C126.601 9.12638 126.761 9.29838 126.788 9.32484C126.948 9.40423 127.148 9.44392 127.388 9.44392C127.735 9.47039 127.989 9.49685 128.149 9.52331C128.229 9.62916 128.335 9.74824 128.469 9.88055C128.549 9.85409 128.656 9.85409 128.789 9.88055C128.923 9.95994 129.029 10.1452 129.109 10.4363C129.216 10.7009 129.31 10.8993 129.39 11.0316C129.496 11.1375 129.75 11.2566 130.15 11.3889C130.551 11.4947 130.817 11.627 130.951 11.7858C131.084 11.9181 131.204 12.196 131.311 12.6194C131.445 13.0163 131.551 13.2809 131.631 13.4132C131.845 13.5985 132.098 13.8631 132.392 14.2071C132.339 14.313 132.299 14.432 132.272 14.5643C132.646 14.9083 132.872 15.2391 132.952 15.5567C132.952 15.7154 132.952 15.9404 132.952 16.2315H133.193C133.139 16.2844 133.099 16.3505 133.073 16.4299C133.099 16.4564 133.179 16.5755 133.313 16.7872C133.5 18.0838 133.5 18.9703 133.313 19.4466C133.179 19.5525 133.059 19.6583 132.952 19.7641C132.926 20.0023 132.952 20.2934 133.033 20.6374C133.139 20.9814 133.193 21.1799 133.193 21.2328C133.113 21.5239 133.033 21.8943 132.952 22.3442C133.086 22.5294 133.126 22.675 133.073 22.7808C132.859 22.8338 132.632 23.019 132.392 23.3365C132.365 23.6012 132.459 23.9584 132.672 24.4082C132.886 24.8581 132.979 25.2153 132.952 25.48C132.952 25.6652 132.846 25.8769 132.632 26.1151C132.365 26.4591 132.219 26.6443 132.192 26.6708C132.112 26.9883 131.925 27.4382 131.631 28.0203C131.418 28.1262 131.111 28.3114 130.711 28.576C130.684 28.6025 130.644 28.7216 130.591 28.9333H130.39C130.364 29.0127 130.324 29.1582 130.27 29.3699C130.164 29.3964 130.017 29.4625 129.83 29.5684C129.803 29.6742 129.763 29.7933 129.71 29.9256C129.523 29.9521 129.256 30.0182 128.909 30.1241C128.856 30.2299 128.789 30.349 128.709 30.4813C128.416 30.4548 128.002 30.4548 127.468 30.4813C127.255 30.5872 126.908 30.7327 126.427 30.9179L126.347 31.1561C126.107 31.1826 125.84 31.2222 125.547 31.2752C125.413 31.3546 125.226 31.4604 124.986 31.5927C124.853 31.5927 124.666 31.5927 124.426 31.5927C122.184 31.9103 120.943 32.0558 120.703 32.0293C120.276 31.8441 119.675 31.6192 118.901 31.3546C118.715 31.381 118.461 31.381 118.141 31.3546C118.034 31.2222 117.887 31.0767 117.7 30.9179C117.3 30.865 116.766 30.6798 116.099 30.3622C115.966 30.1505 115.779 29.8859 115.539 29.5684C115.218 29.4625 114.805 29.2508 114.298 28.9333C114.244 28.6687 114.138 28.2982 113.977 27.8219C113.604 27.2132 113.19 26.2738 112.736 25.0036C112.817 24.739 112.897 24.3024 112.977 23.6938C112.843 23.4292 112.683 23.0851 112.496 22.6618C112.55 22.3707 112.59 21.934 112.616 21.3519C112.536 21.0873 112.47 20.8226 112.416 20.558C112.443 20.4257 112.47 20.3199 112.496 20.2405C112.47 19.9758 112.443 19.7906 112.416 19.6848C112.496 19.2084 112.523 18.9438 112.496 18.8909C112.496 18.7851 112.403 18.613 112.216 18.3749C112.029 18.1367 111.936 17.8986 111.936 17.6604C111.963 17.1576 112.149 16.6416 112.496 16.1124L112.736 15.9933C112.79 15.8081 112.79 15.5434 112.736 15.1994V14.8819C112.817 14.5379 112.963 14.0483 113.177 13.4132C113.47 12.884 113.884 12.4871 114.418 12.2224V12.1034H114.658C114.765 11.7329 114.992 11.2037 115.339 10.5156C115.445 10.4892 115.632 10.423 115.899 10.3172C116.006 10.079 116.219 9.7747 116.539 9.40423C116.7 9.40423 116.886 9.37777 117.1 9.32484C117.287 9.13961 117.554 8.91468 117.901 8.65006C118.461 8.4119 119.142 8.26636 119.942 8.21344ZM123.865 13.0957C123.812 13.3603 123.692 13.8102 123.505 14.4453C123.452 14.4717 123.305 14.5114 123.065 14.5643C122.851 14.5379 122.464 14.4585 121.904 14.3262C121.37 14.1939 120.93 14.1277 120.583 14.1277C120.369 14.1277 120.156 14.1542 119.942 14.2071C119.675 14.3923 119.302 14.6173 118.821 14.8819C118.688 14.8554 118.528 14.8554 118.341 14.8819V15.12C118.154 15.3582 117.82 15.689 117.34 16.1124C117.153 16.1388 116.966 16.1785 116.78 16.2315C116.7 16.3373 116.686 16.5225 116.74 16.7872C116.766 17.0518 116.78 17.1973 116.78 17.2238C116.646 17.2767 116.513 17.3693 116.379 17.5016C116.273 17.6339 116.219 17.8986 116.219 18.2955C116.219 18.7189 116.219 18.9571 116.219 19.01C116.112 19.0894 115.966 19.2349 115.779 19.4466C115.886 19.5525 116.072 19.698 116.339 19.8832C115.912 21.1269 115.766 21.9473 115.899 22.3442C115.926 22.4765 116.086 22.6088 116.379 22.7411C116.673 22.8734 116.846 22.9661 116.9 23.019C117.113 23.4953 117.38 24.0113 117.7 24.567C117.861 24.6729 118.167 24.7126 118.621 24.6861C119.075 24.6332 119.395 24.6332 119.582 24.6861C119.956 24.9772 120.222 25.2021 120.383 25.3609C120.356 25.4667 120.356 25.5726 120.383 25.6784C120.516 25.7049 120.743 25.7446 121.063 25.7975C121.597 26.0357 122.344 26.3003 123.305 26.5914C123.465 26.5385 123.732 26.4988 124.105 26.4723C124.319 26.5781 124.613 26.7237 124.986 26.9089C125.12 26.6972 125.346 26.4061 125.667 26.0357C125.987 25.9034 126.361 25.7181 126.788 25.48C126.788 25.48 126.788 25.3609 126.788 25.1227C126.921 25.0963 126.988 25.0036 126.988 24.8449C126.988 24.792 126.961 24.6332 126.908 24.3686C126.854 24.1304 126.854 23.9319 126.908 23.7732C127.148 23.6409 127.401 23.4292 127.668 23.1381C127.668 23.1381 127.668 22.7676 127.668 22.0267C127.775 22.0002 127.895 21.9208 128.029 21.7885C128.029 21.7356 127.989 21.6562 127.908 21.5503C127.802 21.5768 127.655 21.5768 127.468 21.5503C127.255 21.4974 127.108 21.3651 127.028 21.1534C126.974 20.9152 126.934 20.6771 126.908 20.4389C126.934 20.4389 126.961 20.3728 126.988 20.2405C127.148 20.2405 127.415 20.2008 127.788 20.1214C127.815 19.7245 127.775 19.1688 127.668 18.4543C127.428 18.269 127.175 18.0838 126.908 17.8986C126.828 17.6604 126.854 17.409 126.988 17.1444C127.148 16.8798 127.228 16.721 127.228 16.6681C127.228 16.6152 127.161 16.3638 127.028 15.9139C126.921 15.4376 126.841 15.173 126.788 15.12C126.627 15.0671 126.441 14.9877 126.227 14.8819C126.174 14.6967 126.054 14.4717 125.867 14.2071C125.627 14.1806 125.226 14.0748 124.666 13.8896C124.639 13.7837 124.599 13.6646 124.546 13.5323C124.386 13.4529 124.159 13.3074 123.865 13.0957Z" fill="black"/>
<path d="M168.815 0.0366393C169.162 0.0366393 169.629 0.0366393 170.216 0.0366393C170.322 0.0631026 170.403 0.102796 170.456 0.15572C171.15 0.393879 171.884 0.737887 172.658 1.18774C172.658 1.37298 172.658 1.61114 172.658 1.90222C172.711 2.16684 173.071 2.43146 173.739 2.69608C173.739 2.80193 173.698 2.9607 173.618 3.1724C173.352 3.35764 172.991 3.58256 172.538 3.84718C172.885 4.3235 173.085 4.65428 173.138 4.83952C173.191 5.05121 173.151 5.46137 173.018 6.07C173.231 6.17585 173.538 6.37432 173.939 6.6654C173.939 6.6654 173.939 6.77125 173.939 6.98295C173.859 7.00941 173.712 7.0491 173.498 7.10203C173.605 7.65773 173.792 8.39867 174.059 9.32484C174.085 9.35131 174.326 9.54977 174.779 9.92024C174.779 10.2378 174.859 10.6612 175.02 11.1904L175.82 11.627C175.74 11.8387 175.66 12.0372 175.58 12.2224C175.34 12.3018 175.113 12.3812 174.899 12.4606C174.899 12.54 174.899 12.6591 174.899 12.8178C174.979 13.0031 175.206 13.228 175.58 13.4926H175.7C175.673 13.7043 175.633 14.0616 175.58 14.5643L175.82 14.7628C175.793 14.9745 175.793 15.2524 175.82 15.5964C176.007 15.8874 176.247 16.2712 176.541 16.7475C177.074 16.6945 177.622 16.7739 178.182 16.9856V17.2238C177.862 17.3826 177.542 17.5678 177.221 17.7795C177.568 18.0441 177.768 18.2823 177.822 18.494C177.875 18.8909 177.915 19.2746 177.942 19.6451L178.182 20.0023C178.342 20.558 178.302 21.1799 178.062 21.8679C178.169 21.9208 178.289 22.0399 178.422 22.2251C178.422 22.5162 178.422 22.6618 178.422 22.6618C178.315 22.7147 178.195 22.7941 178.062 22.8999C177.982 23.5615 178.182 24.2627 178.662 25.0036C178.769 25.1624 178.996 25.3212 179.343 25.48C179.69 25.6123 179.89 25.7314 179.943 25.8372C180.023 25.9431 180.064 26.1283 180.064 26.3929C180.09 26.6311 180.13 26.8295 180.184 26.9883L180.424 27.1074L180.544 27.4249C180.704 27.5308 180.958 27.5837 181.305 27.5837C181.651 27.5572 181.905 27.5837 182.065 27.6631C182.145 27.8483 182.292 28.0865 182.505 28.3776C182.639 28.3776 182.839 28.4173 183.106 28.4966C183.106 28.576 183.146 28.6819 183.226 28.8142C183.359 28.8407 183.56 28.8803 183.827 28.9333V29.1714H184.027C184.053 30.177 184.053 30.7195 184.027 30.7989C183.92 30.9047 183.773 31.0635 183.586 31.2752C183.293 31.5927 183.039 31.7515 182.826 31.7515C182.265 31.725 181.972 31.725 181.945 31.7515C181.678 31.9103 181.278 32.0955 180.744 32.3072C180.611 32.3337 179.757 32.2543 178.182 32.069C177.915 32.0426 177.595 32.0823 177.221 32.1881C176.874 32.294 176.567 32.3337 176.301 32.3072C176.007 32.2013 175.62 32.0823 175.14 31.95C174.819 32.0029 174.352 32.0029 173.739 31.95C173.552 31.8441 173.312 31.7383 173.018 31.6324C172.938 31.6324 172.764 31.6853 172.498 31.7912C172.257 31.897 172.124 31.95 172.097 31.95C171.99 31.7912 171.79 31.5663 171.497 31.2752C171.39 31.2487 171.23 31.209 171.016 31.1561C171.15 30.7062 171.15 30.2828 171.016 29.8859C170.803 29.8594 170.496 29.8594 170.096 29.8859C169.935 29.9918 169.735 30.1108 169.495 30.2431C169.335 30.2696 169.148 30.2564 168.935 30.2035C168.748 30.1241 168.588 30.0579 168.454 30.005C168.374 30.0315 168.174 30.0711 167.854 30.1241C167.987 30.5475 168.054 30.7724 168.054 30.7989C168.054 30.9312 167.84 31.0899 167.413 31.2752C167.253 31.381 167.053 31.5001 166.813 31.6324C166.466 31.6324 165.919 31.6721 165.172 31.7515C164.238 31.8838 163.811 31.95 163.891 31.95C162.797 31.897 162.329 31.8706 162.49 31.8706C162.463 31.8706 162.343 31.897 162.129 31.95C161.943 32.0293 161.822 32.069 161.769 32.069C161.556 31.9632 161.249 31.8573 160.848 31.7515C160.475 31.8044 159.968 31.8441 159.327 31.8706C158.953 31.7912 158.526 31.7118 158.046 31.6324C157.779 31.6589 157.432 31.6589 157.005 31.6324C156.979 31.6059 156.778 31.4604 156.405 31.1958C156.031 30.9047 155.831 30.7327 155.804 30.6798C155.671 30.521 155.564 30.1638 155.484 29.6081C155.404 28.9994 155.417 28.5496 155.524 28.2585C155.658 27.9674 156.071 27.7689 156.765 27.6631C156.818 27.6631 157.312 27.6366 158.246 27.5837C158.753 27.5308 159.154 27.4117 159.447 27.2265L160.168 26.0357C160.114 25.8769 160.074 25.6917 160.048 25.48C160.074 25.3477 160.221 25.2021 160.488 25.0433C160.755 24.8846 160.915 24.739 160.968 24.6067C161.048 24.4744 161.062 24.2892 161.008 24.051C160.928 23.8129 160.915 23.6276 160.968 23.4953C161.529 22.8073 161.836 22.4633 161.889 22.4633H162.009C162.036 22.3839 162.036 21.9076 162.009 21.0343C161.983 21.0079 161.929 20.9814 161.849 20.9549C161.796 20.9285 161.769 20.8888 161.769 20.8359C161.796 20.7036 161.929 20.558 162.169 20.3992C162.41 20.214 162.556 20.0817 162.61 20.0023C162.583 19.8965 162.583 19.7774 162.61 19.6451C162.716 19.6451 162.837 19.6054 162.97 19.526C163.023 19.182 162.943 18.9306 162.73 18.7718C162.57 18.6924 162.41 18.5998 162.249 18.494C162.276 18.3881 162.276 18.269 162.249 18.1367C162.436 18.0573 162.636 17.9383 162.85 17.7795C162.957 17.6472 163.05 17.3826 163.13 16.9856C163.237 16.5887 163.344 16.3373 163.45 16.2315C163.557 16.1256 163.704 15.9933 163.891 15.8345C164.238 15.3053 164.438 14.8422 164.491 14.4453C164.411 14.2071 164.371 13.8102 164.371 13.2545C164.371 13.2545 164.424 13.1089 164.531 12.8178C164.611 12.6061 164.638 12.4077 164.611 12.2224C164.585 12.2224 164.531 12.1828 164.451 12.1034C164.371 11.9975 164.344 11.8784 164.371 11.7461C164.478 11.6932 164.585 11.6138 164.691 11.508C164.718 11.4815 164.758 11.2963 164.811 10.9523C164.731 10.6612 164.691 10.1981 164.691 9.563C164.878 9.43069 165.078 9.23223 165.292 8.9676C165.238 8.88822 165.198 8.72945 165.172 8.49129C165.439 8.33251 165.759 8.06789 166.132 7.69742C166.239 7.37988 166.253 6.94325 166.173 6.38755C166.092 5.77892 166.079 5.36876 166.132 5.15706C166.213 4.99829 166.319 4.79982 166.453 4.56166C166.479 4.61459 166.506 4.58812 166.533 4.48228C166.559 4.34997 166.573 4.25735 166.573 4.20442C166.546 4.07211 166.399 3.91334 166.132 3.72811C165.866 3.51641 165.732 3.34441 165.732 3.2121C165.732 2.97394 165.972 2.68285 166.453 2.33884C166.613 2.36531 166.813 2.28592 167.053 2.10069C167.053 1.91545 167.093 1.61114 167.173 1.18774L168.815 0.0366393ZM170.096 11.627C169.882 11.7064 169.535 11.9843 169.055 12.4606C169.108 12.54 169.135 12.6591 169.135 12.8178C169.242 12.8443 169.402 12.9237 169.615 13.056C169.348 13.1354 169.041 13.3206 168.695 13.6117C168.641 13.744 168.641 13.8763 168.695 14.0086C168.775 14.141 168.815 14.2468 168.815 14.3262C168.815 14.432 168.654 14.5776 168.334 14.7628C168.308 15.0539 168.227 15.4508 168.094 15.9536C167.534 15.8742 167.307 15.8345 167.413 15.8345C167.413 16.1521 167.413 16.2976 167.413 16.2712C167.413 16.2712 167.68 16.2712 168.214 16.2712C168.214 16.1918 168.294 16.0859 168.454 15.9536C169.015 16.7739 169.242 17.3561 169.135 17.7001C169.081 17.7266 168.975 17.7927 168.815 17.8986C168.761 18.0309 168.761 18.15 168.815 18.2558C168.841 18.3352 168.921 18.3749 169.055 18.3749C169.215 18.269 169.402 18.15 169.615 18.0176C169.615 18.0176 170.002 18.0176 170.776 18.0176C170.91 17.7001 171.07 17.237 171.257 16.6284C171.096 16.4696 170.83 16.2447 170.456 15.9536C170.296 15.9271 170.056 15.8478 169.735 15.7154C169.735 15.6096 169.695 15.4905 169.615 15.3582C170.016 15.4905 170.336 15.5567 170.576 15.5567C170.976 15.5567 171.176 15.3582 171.176 14.9613C171.176 14.8025 171.11 14.4717 170.976 13.9689C170.843 13.4662 170.776 13.1222 170.776 12.9369C170.483 12.7517 170.336 12.6723 170.336 12.6988C170.336 12.6723 170.376 12.3548 170.456 11.7461L170.096 11.627ZM167.854 23.8525C167.454 23.9055 167.187 24.2892 167.053 25.0036C166.733 25.0036 166.573 25.0036 166.573 25.0036C166.439 25.0036 166.253 25.0036 166.012 25.0036C166.012 25.1889 166.012 25.4535 166.012 25.7975C165.879 25.8769 165.759 25.9563 165.652 26.0357C165.705 26.1151 165.746 26.2341 165.772 26.3929C166.092 26.4723 166.132 26.512 165.892 26.512C166.933 26.4326 167.667 26.6708 168.094 27.2265C168.094 27.3588 168.227 27.5308 168.494 27.7425C168.681 27.716 168.975 27.7292 169.375 27.7822C169.455 27.9145 169.575 28.0733 169.735 28.2585C169.895 28.285 170.096 28.3246 170.336 28.3776L170.776 28.0203C170.776 27.9145 170.816 27.7557 170.896 27.544H171.136C171.217 27.5175 171.483 27.2926 171.937 26.8692C172.417 26.4194 172.698 26.1415 172.778 26.0357C172.698 25.8504 172.618 25.6652 172.538 25.48C172.458 25.2683 172.311 25.1492 172.097 25.1227C171.937 25.1492 171.737 25.1492 171.497 25.1227L171.257 24.2892C171.123 24.1833 170.603 24.0775 169.695 23.9716C168.788 23.8393 168.174 23.7996 167.854 23.8525Z" fill="black"/>
<path d="M205.227 7.53865C205.548 7.48573 205.935 7.53865 206.388 7.69742C206.655 7.80327 206.936 7.90912 207.229 8.01497C207.683 7.96204 208.35 8.00174 209.231 8.13405C209.471 8.37221 209.818 8.67652 210.272 9.04699C210.405 9.07345 210.605 9.15284 210.872 9.28515C210.952 9.47039 211.112 9.70854 211.352 9.99963C211.459 9.99963 211.579 10.0393 211.713 10.1187C211.713 10.3039 211.753 10.5686 211.833 10.9126C212.046 11.1507 212.286 11.508 212.553 11.9843C212.58 12.2224 212.513 12.4738 212.353 12.7385C212.22 13.0031 212.166 13.2545 212.193 13.4926C212.3 13.7308 212.42 14.0086 212.553 14.3262C212.607 15.0936 212.487 15.7551 212.193 16.3108C212.033 16.3902 211.873 16.5093 211.713 16.6681C211.739 16.7739 211.739 16.893 211.713 17.0253C211.499 17.2899 211.192 17.4487 210.792 17.5016C210.418 17.5281 210.018 17.5678 209.591 17.6207C209.431 17.7266 209.231 17.8456 208.99 17.978C208.99 17.978 208.363 17.978 207.109 17.978C206.922 17.3429 206.682 16.9062 206.388 16.6681C206.282 16.6681 206.162 16.6284 206.028 16.549C206.028 16.4432 205.988 16.2844 205.908 16.0727C205.828 16.0991 205.708 16.1388 205.548 16.1918V16.4299C205.361 16.5093 205.094 16.4828 204.747 16.3505C204.507 16.2712 204.267 16.1785 204.027 16.0727C203.946 15.7816 203.946 15.6625 204.027 15.7154C204.107 15.5831 204.187 15.4376 204.267 15.2788C204.587 15.3053 204.707 15.345 204.627 15.3979C204.814 15.5037 205.041 15.6096 205.308 15.7154C205.521 15.7419 205.628 15.689 205.628 15.5567C205.628 15.4508 205.534 15.2921 205.348 15.0804C205.161 14.8422 205.041 14.7099 204.987 14.6834V14.5643C204.934 14.6173 204.854 14.6967 204.747 14.8025C204.267 14.9613 203.479 14.8819 202.385 14.5643C202.225 14.4585 202.025 14.3394 201.785 14.2071C201.731 14.26 201.611 14.2997 201.424 14.3262C201.344 14.485 201.224 14.7628 201.064 15.1597L200.824 15.2788C200.851 15.4376 200.811 15.7022 200.704 16.0727C200.597 16.0991 200.45 16.1388 200.264 16.1918C200.237 16.2976 200.197 16.4167 200.143 16.549C200.01 16.5225 199.85 16.5225 199.663 16.549C199.636 16.6813 199.596 16.8401 199.543 17.0253C199.329 17.1047 199.076 17.3429 198.782 17.7398C198.676 18.0309 198.636 18.4278 198.662 18.9306C198.742 19.5392 198.756 20.0023 198.702 20.3199C198.702 20.3463 198.662 20.4786 198.582 20.7168C198.502 20.9549 198.462 21.1269 198.462 21.2328C198.462 21.2593 198.516 21.3916 198.622 21.6297C198.729 21.8414 198.756 22.0267 198.702 22.1854C198.596 22.2913 198.475 22.4501 198.342 22.6618C198.609 23.0322 198.822 23.2175 198.983 23.2175C199.116 23.2175 199.343 23.0322 199.663 22.6618C199.957 22.7411 200.117 22.7808 200.143 22.7808C200.197 23.4688 200.237 23.7732 200.264 23.6938C200.103 23.9584 199.943 24.2362 199.783 24.5273C199.997 24.792 200.224 25.0566 200.464 25.3212C200.49 25.4535 200.53 25.652 200.584 25.9166C201.198 25.652 201.705 25.5197 202.105 25.5197C202.399 25.5197 202.679 25.5726 202.946 25.6784C203.133 25.7578 203.293 25.9298 203.426 26.1944C203.666 26.6178 203.786 26.8428 203.786 26.8692C204.213 27.2397 204.627 27.6234 205.027 28.0203C205.588 28.5496 205.801 29.1053 205.668 29.6874C205.534 29.7933 205.388 29.9521 205.227 30.1638C205.174 30.2961 205.054 30.4813 204.867 30.7195C204.76 30.7195 204.64 30.7195 204.507 30.7195C204.24 30.8782 203.84 31.037 203.306 31.1958C203.012 31.1693 202.585 31.1693 202.025 31.1958V31.4339C201.731 31.5398 201.411 31.6589 201.064 31.7912C200.744 31.897 200.437 31.9367 200.143 31.9103C199.903 31.8044 199.623 31.6853 199.303 31.553C198.289 31.3413 197.461 31.3016 196.821 31.4339L196.581 31.6721C196.661 31.6456 196.34 31.6059 195.62 31.553C195.753 31.553 195.366 31.5927 194.459 31.6721C193.792 31.6192 192.844 31.5795 191.617 31.553C191.59 31.553 191.43 31.5927 191.136 31.6721C190.869 31.7515 190.709 31.7912 190.656 31.7912C190.496 31.7647 190.309 31.6721 190.096 31.5133C189.909 31.3281 189.789 31.2222 189.735 31.1958C189.468 31.1429 189.068 31.0635 188.534 30.9576C188.508 30.9047 188.468 30.8253 188.414 30.7195C187.88 30.7989 187.52 30.7989 187.333 30.7195C187.227 30.6401 187 30.4152 186.653 30.0447C186.546 30.0182 186.426 29.9785 186.292 29.9256C186.292 29.7668 186.252 29.5287 186.172 29.2111C186.413 28.8671 186.813 28.3908 187.373 27.7822C187.534 27.7292 187.8 27.6234 188.174 27.4646C188.254 27.3323 188.334 27.2132 188.414 27.1074C188.681 27.028 188.988 27.0677 189.335 27.2265C189.709 27.3588 190.042 27.3985 190.336 27.3455V27.2265C190.576 27.0412 190.843 26.8428 191.136 26.6311C191.643 26.6311 192.351 26.5517 193.258 26.3929L193.378 26.1548C193.512 26.1283 193.672 26.0489 193.859 25.9166C193.992 25.6784 194.059 25.4403 194.059 25.2021C194.059 25.0433 194.019 24.7655 193.939 24.3686C193.858 23.9716 193.832 23.6276 193.859 23.3365C193.859 23.3101 193.912 23.0851 194.019 22.6618C194.099 22.3177 194.125 22.0399 194.099 21.8282C194.099 21.8017 194.045 21.6827 193.939 21.471C193.858 21.2593 193.832 21.0608 193.859 20.8756H193.979C194.085 20.5051 194.326 20.042 194.699 19.4863C194.646 19.4598 194.606 19.3408 194.579 19.1291C194.552 19.0497 194.592 18.9703 194.699 18.8909C194.619 18.6792 194.619 18.5601 194.699 18.5337C194.512 18.2426 194.312 17.8589 194.099 17.3826C194.125 17.2767 194.125 17.1576 194.099 17.0253C193.992 16.9459 193.872 16.8665 193.738 16.7872C193.712 16.6284 193.765 16.4828 193.899 16.3505C194.032 16.1918 194.099 16.0991 194.099 16.0727C194.072 15.8874 194.072 15.6228 194.099 15.2788C194.179 15.0671 194.299 14.7496 194.459 14.3262C194.512 14.2997 194.592 14.26 194.699 14.2071C194.646 13.7572 194.606 13.5985 194.579 13.7308V13.4926C194.446 13.4662 194.245 13.3868 193.979 13.2545C194.059 12.7252 194.099 12.5003 194.099 12.5797C194.099 12.368 193.939 12.2092 193.618 12.1034C193.431 12.024 193.245 11.9843 193.058 11.9843C192.844 11.9843 192.564 12.0372 192.217 12.1431C191.87 12.2489 191.63 12.3151 191.497 12.3415C190.856 12.4209 190.229 12.3415 189.615 12.1034L189.495 11.8652C189.121 11.9711 188.534 11.9711 187.734 11.8652C187.467 11.7594 187.267 11.4418 187.133 10.9126C187.053 10.6744 187.013 10.4363 187.013 10.1981C187.013 9.85409 187.253 9.16607 187.734 8.13405C189.362 8.18697 190.296 8.18697 190.536 8.13405C190.696 7.97528 190.896 7.8165 191.136 7.65773C191.35 7.60481 191.563 7.6445 191.777 7.77681C191.884 7.8562 191.99 7.93558 192.097 8.01497C192.417 8.04143 192.844 8.01497 193.378 7.93558C193.912 7.8562 194.312 7.84297 194.579 7.89589C194.953 8.00174 195.5 8.14728 196.22 8.33252V8.57067C196.38 8.57067 196.621 8.61037 196.941 8.68975C197.048 8.84853 197.248 9.0073 197.541 9.16607C197.915 9.13961 198.462 9.13961 199.183 9.16607C199.209 9.16607 199.41 9.219 199.783 9.32484C200.077 9.40423 200.304 9.43069 200.464 9.40423C200.784 9.19253 201.224 8.91468 201.785 8.57067C201.865 8.59714 201.985 8.59714 202.145 8.57067C202.332 8.43836 202.559 8.29282 202.826 8.13405C203.119 8.16051 203.56 8.16051 204.147 8.13405L204.267 7.89589C204.507 7.79004 204.827 7.67096 205.227 7.53865ZM199.663 21.9473C199.743 21.9737 199.783 22.0399 199.783 22.1457C199.73 22.1987 199.69 22.2516 199.663 22.3045C199.583 22.1457 199.583 22.0267 199.663 21.9473Z" fill="black"/>
<path d="M234.768 8.49129C234.875 8.46482 234.995 8.45159 235.129 8.45159C235.396 8.45159 235.676 8.50452 235.969 8.61037C236.156 8.68975 236.33 8.76914 236.49 8.84853C236.677 8.7956 237.024 8.7956 237.531 8.84853C237.744 8.98084 238.064 9.13961 238.491 9.32484C238.598 9.32484 238.772 9.35131 239.012 9.40423C239.065 9.53654 239.145 9.69531 239.252 9.88055H239.492C239.519 10.1716 239.599 10.5818 239.732 11.111L239.973 11.2301C239.973 11.3889 239.932 11.5609 239.852 11.7461C239.772 11.9314 239.732 12.024 239.732 12.024C239.706 12.2357 239.746 12.6988 239.852 13.4132C239.826 13.4132 239.626 13.4529 239.252 13.5323C239.252 13.744 239.172 14.0086 239.012 14.3262C238.638 14.6967 237.918 14.8819 236.85 14.8819C236.637 14.8819 236.476 14.8422 236.37 14.7628C236.396 14.6834 236.396 14.5776 236.37 14.4453C236.29 14.3659 236.183 14.2468 236.049 14.088C235.969 14.0351 235.809 13.9954 235.569 13.9689C235.436 14.1277 235.289 14.2865 235.129 14.4453H234.888C234.595 14.8157 234.515 15.2656 234.648 15.7948C234.648 15.7948 234.768 15.9139 235.009 16.1521C235.089 16.6284 235.089 17.1576 235.009 17.7398C234.982 17.8456 234.942 17.8853 234.888 17.8589V18.097H234.648C234.755 18.2029 234.835 18.3087 234.888 18.4146C234.808 18.3881 234.688 18.4278 234.528 18.5337C234.341 18.8777 234.261 19.1158 234.288 19.2481C234.475 19.3804 234.515 19.4466 234.408 19.4466C234.488 19.526 234.568 19.6451 234.648 19.8038C234.542 19.8038 234.395 19.8435 234.208 19.9229C234.208 20.0023 234.208 20.1214 234.208 20.2802C234.075 20.2802 233.914 20.3066 233.728 20.3595V20.5977C233.621 20.6506 233.474 20.73 233.287 20.8359C233.1 21.1005 232.793 21.5503 232.366 22.1854C232.34 22.3442 232.34 22.4897 232.366 22.6221C232.42 22.7808 232.447 22.9131 232.447 23.019C232.073 22.9925 231.539 23.019 230.845 23.0984C230.845 23.2042 230.845 23.3233 230.845 23.4556C230.712 23.4821 230.565 23.5218 230.405 23.5747V23.6938C230.405 23.7732 230.352 23.8393 230.245 23.8922C230.138 23.9452 230.071 23.9981 230.045 24.051C230.098 24.1304 230.138 24.2759 230.165 24.4876C230.165 24.5406 229.965 24.8052 229.564 25.2815C229.618 25.308 229.698 25.4667 229.804 25.7578C230.018 25.7843 230.285 25.7843 230.605 25.7578C230.658 25.6255 230.699 25.5064 230.725 25.4006C231.259 25.083 231.806 25.0433 232.366 25.2815C232.553 25.5461 232.86 25.8504 233.287 26.1944C233.554 26.1944 233.928 26.2341 234.408 26.3135C234.542 26.3664 234.728 26.5781 234.969 26.9486C235.235 27.3191 235.436 27.5308 235.569 27.5837C235.916 27.5572 236.423 27.5572 237.09 27.5837C237.17 27.6102 237.277 27.6499 237.41 27.7028V27.9013C237.464 27.9277 237.557 27.888 237.691 27.7822C237.851 27.6499 237.958 27.5837 238.011 27.5837C238.144 27.5572 238.291 27.5705 238.451 27.6234C238.638 27.6763 238.758 27.7028 238.812 27.7028C238.812 27.9145 238.798 28.1262 238.772 28.3379C238.745 28.6554 238.638 28.8142 238.451 28.8142C238.478 28.92 238.518 29.0391 238.571 29.1714C238.705 29.4096 239.319 29.6742 240.413 29.9653C240.44 30.0711 240.44 30.2299 240.413 30.4416L239.973 30.7592V30.8782C239.866 30.8518 239.746 30.8518 239.612 30.8782C239.772 31.2487 239.892 31.6721 239.973 32.1484C239.999 32.2278 240.106 32.3072 240.293 32.3866V32.1484C240.453 32.1749 240.68 32.1749 240.973 32.1484C241.053 32.0426 241.133 31.9235 241.214 31.7912C241.32 31.8176 241.48 31.8176 241.694 31.7912C241.667 31.8441 241.667 31.9632 241.694 32.1484C241.694 32.1484 241.534 32.1484 241.214 32.1484C241.107 32.3072 241 32.5321 240.893 32.8232C240.947 33.1672 240.973 33.67 240.973 34.3315C240.92 34.4639 240.853 34.6491 240.773 34.8872C240.693 34.9137 240.573 34.9534 240.413 35.0063C240.44 35.1916 240.44 35.4562 240.413 35.8002C240.199 36.0119 239.973 36.3162 239.732 36.7131C239.759 36.819 239.759 36.9645 239.732 37.1498C239.492 37.3085 239.185 37.5467 238.812 37.8642C238.758 38.023 238.638 38.2082 238.451 38.4199C238.078 38.3935 237.544 38.4332 236.85 38.539C236.717 38.6713 236.556 38.8301 236.37 39.0153C236.129 38.9889 235.742 39.0153 235.209 39.0947C235.129 39.2006 235.022 39.3197 234.888 39.452C234.675 39.452 234.368 39.4917 233.968 39.571C233.861 39.6769 233.741 39.796 233.607 39.9283C233.18 39.9812 232.567 40.0871 231.766 40.2458C230.405 40.6428 229.444 40.8015 228.884 40.7221C228.697 40.6428 228.47 40.5634 228.203 40.484C228.123 40.484 227.91 40.5369 227.563 40.6428C227.216 40.7751 227.042 40.8412 227.042 40.8412C225.788 41.0529 224.787 41.0529 224.04 40.8412C223.96 40.7089 223.853 40.5501 223.72 40.3649C223.479 40.2061 223.133 40.0871 222.679 40.0077C222.012 40.0871 221.091 40.0606 219.917 39.9283C219.89 39.8224 219.85 39.7034 219.797 39.571C219.69 39.571 219.53 39.5314 219.316 39.452C219.263 39.3461 219.196 39.227 219.116 39.0947C218.849 39.1212 218.462 39.0947 217.955 39.0153V38.8963C217.795 38.8433 217.568 38.7243 217.275 38.539C217.248 38.4067 217.168 38.2612 217.034 38.1024H216.794C216.821 37.9965 216.821 37.8775 216.794 37.7452C216.687 37.7452 216.527 37.7055 216.314 37.6261C216.34 37.5202 216.34 37.4011 216.314 37.2688C215.94 37.0307 215.527 36.7264 215.073 36.3559C215.073 36.2765 215.073 36.1707 215.073 36.0383C214.939 35.8531 214.779 35.5885 214.592 35.2445C214.406 34.53 214.406 33.4186 214.592 31.9103C214.672 31.2752 214.873 30.7459 215.193 30.3225C215.193 30.2961 215.42 30.1373 215.873 29.8462C215.9 29.5287 216.087 29.0788 216.434 28.4966C216.487 28.4702 216.514 28.4305 216.514 28.3776C216.514 28.2717 216.381 28.1526 216.114 28.0203C216.034 27.888 216.007 27.7028 216.034 27.4646C216.087 27.2 216.114 27.0412 216.114 26.9883C216.007 26.6443 215.927 26.4194 215.873 26.3135C215.793 26.2871 215.673 26.2474 215.513 26.1944C215.433 25.9298 215.406 25.5197 215.433 24.964C215.46 24.4347 215.526 24.051 215.633 23.8129C215.687 23.707 215.94 23.4292 216.394 22.9793C216.848 22.5294 217.141 22.2648 217.275 22.1854C217.328 22.159 217.421 22.1457 217.555 22.1457C217.688 22.1457 217.782 22.1325 217.835 22.106C217.968 21.8414 218.155 21.5371 218.395 21.1931C218.636 21.1137 218.902 20.9549 219.196 20.7168C219.223 20.5051 219.263 20.2008 219.316 19.8038C219.343 19.7774 219.463 19.6318 219.676 19.3672C219.703 19.0761 219.596 18.7454 219.356 18.3749C219.116 17.978 218.996 17.6869 218.996 17.5016C219.076 17.2635 219.143 16.8136 219.196 16.1521C219.196 15.9933 219.129 15.6758 218.996 15.1994C218.889 14.7231 218.849 14.3923 218.876 14.2071C218.902 13.9425 219.116 13.6646 219.516 13.3735C219.943 13.056 220.17 12.7649 220.197 12.5003C220.17 12.3151 220.184 12.0504 220.237 11.7064C220.424 11.5212 220.624 11.283 220.837 10.992V10.7935C220.997 10.767 221.224 10.7273 221.518 10.6744C221.731 10.3833 221.958 10.079 222.198 9.76147C222.439 9.78793 222.786 9.78793 223.239 9.76147C223.319 9.62916 223.439 9.47039 223.6 9.28515C223.706 9.31161 223.853 9.31161 224.04 9.28515C224.147 9.1793 224.267 9.07345 224.4 8.9676C224.881 8.78237 225.534 8.78237 226.362 8.9676C226.495 9.07345 226.642 9.1793 226.802 9.28515C227.042 9.28515 227.389 9.32484 227.843 9.40423C227.87 9.43069 227.99 9.54977 228.203 9.76147C228.39 9.76147 228.63 9.68208 228.924 9.52331C229.244 9.33808 229.498 9.25869 229.684 9.28515C229.818 9.31161 230.071 9.45715 230.445 9.72178C230.819 9.95993 231.179 10.0393 231.526 9.95994C231.739 9.80116 232.02 9.61593 232.366 9.40423C232.633 9.53654 232.967 9.65562 233.367 9.76147V9.52331L234.768 8.49129ZM225.881 11.5874C225.775 11.5874 225.641 11.68 225.481 11.8652C225.348 12.0504 225.254 12.1431 225.201 12.1431C224.907 12.1166 224.48 12.1166 223.92 12.1431C223.866 12.1695 223.706 12.3151 223.439 12.5797C223.173 12.8443 223.026 13.0031 222.999 13.056C223.052 13.1883 223.052 13.4529 222.999 13.8499C222.866 13.9822 222.719 14.141 222.559 14.3262C222.532 14.4056 222.612 14.7099 222.799 15.2391L221.758 15.7948C221.705 15.9271 221.678 16.0595 221.678 16.1918C221.678 16.5887 221.932 16.9195 222.439 17.1841C222.198 17.8721 222.158 18.4014 222.319 18.7718L223.479 19.9229H223.72C223.693 20.0288 223.693 20.1479 223.72 20.2802C223.826 20.3066 224.013 20.3066 224.28 20.2802L224.4 19.8038C224.587 19.8038 224.894 19.8435 225.321 19.9229C225.775 20.0817 226.082 20.2669 226.242 20.4786C226.242 20.5845 226.322 20.7432 226.482 20.9549C226.482 20.9549 226.522 21.0343 226.602 21.1931C227.002 21.1931 227.576 21.1534 228.323 21.074C228.35 20.9153 228.43 20.6771 228.563 20.3595C228.617 20.3331 228.684 20.3066 228.764 20.2802C228.764 20.1479 228.764 19.9891 228.764 19.8038C228.87 19.8038 228.99 19.8038 229.124 19.8038C229.151 19.698 229.257 19.5657 229.444 19.4069C229.604 19.4334 229.844 19.4201 230.165 19.3672V19.1291C230.325 18.9967 230.512 18.838 230.725 18.6527C230.485 18.0706 230.378 17.7266 230.405 17.6207C230.538 17.5413 230.685 17.4355 230.845 17.3032C230.899 17.1444 230.899 16.721 230.845 16.033C230.819 15.7948 230.392 14.8025 229.564 13.056H229.364C229.364 12.9502 229.324 12.8046 229.244 12.6194C229.137 12.5929 229.017 12.5532 228.884 12.5003C228.884 12.4738 228.844 12.3548 228.764 12.1431C228.55 12.0372 228.217 12.024 227.763 12.1034C227.256 12.1563 226.936 12.1695 226.802 12.1431C226.775 12.1431 226.655 12.0504 226.442 11.8652C226.255 11.6535 226.068 11.5609 225.881 11.5874ZM222.679 22.6618C222.545 22.6618 222.372 22.7411 222.158 22.8999C221.972 23.0587 221.825 23.1381 221.718 23.1381C221.611 23.1381 221.465 23.1645 221.278 23.2175C221.278 23.3233 221.238 23.4424 221.158 23.5747C221.211 23.7335 221.251 23.8922 221.278 24.051C221.465 24.0246 221.731 24.051 222.078 24.1304C222.238 24.2362 222.332 24.4083 222.359 24.6464C222.385 24.8581 222.452 24.9904 222.559 25.0433C222.665 25.0698 222.852 25.1095 223.119 25.1624C223.119 25.2153 223.159 25.2947 223.239 25.4006C223.586 24.5803 223.666 23.8525 223.479 23.2175C223.64 23.1645 223.72 23.1248 223.72 23.0984C223.079 22.8073 222.732 22.6618 222.679 22.6618Z" fill="black"/>
<path d="M251.804 8.21344C251.831 8.18697 252.578 8.21344 254.046 8.29282C254.313 8.26636 254.687 8.2399 255.167 8.21344C255.461 8.34575 255.834 8.49129 256.288 8.65006C256.475 8.51775 256.808 8.39867 257.289 8.29282C257.582 8.31928 257.876 8.49129 258.169 8.80883C258.463 9.12638 258.623 9.29838 258.65 9.32484C258.81 9.40423 259.01 9.44392 259.25 9.44392C259.597 9.47039 259.851 9.49685 260.011 9.52331C260.091 9.62916 260.198 9.74824 260.331 9.88055C260.411 9.85409 260.518 9.85409 260.651 9.88055C260.785 9.95994 260.892 10.1452 260.972 10.4363C261.078 10.7009 261.172 10.8993 261.252 11.0316C261.359 11.1375 261.612 11.2566 262.012 11.3889C262.413 11.4947 262.68 11.627 262.813 11.7858C262.947 11.9181 263.067 12.196 263.173 12.6194C263.307 13.0163 263.414 13.2809 263.494 13.4132C263.707 13.5985 263.961 13.8631 264.254 14.2071C264.201 14.313 264.161 14.432 264.134 14.5643C264.508 14.9083 264.735 15.2391 264.815 15.5567C264.815 15.7154 264.815 15.9404 264.815 16.2315H265.055C265.001 16.2844 264.961 16.3505 264.935 16.4299C264.961 16.4564 265.042 16.5755 265.175 16.7872C265.362 18.0838 265.362 18.9703 265.175 19.4466C265.042 19.5525 264.921 19.6583 264.815 19.7641C264.788 20.0023 264.815 20.2934 264.895 20.6374C265.001 20.9814 265.055 21.1799 265.055 21.2328C264.975 21.5239 264.895 21.8943 264.815 22.3442C264.948 22.5294 264.988 22.675 264.935 22.7808C264.721 22.8338 264.494 23.019 264.254 23.3365C264.228 23.6012 264.321 23.9584 264.534 24.4082C264.748 24.8581 264.841 25.2153 264.815 25.48C264.815 25.6652 264.708 25.8769 264.494 26.1151C264.228 26.4591 264.081 26.6443 264.054 26.6708C263.974 26.9883 263.787 27.4382 263.494 28.0203C263.28 28.1262 262.973 28.3114 262.573 28.576C262.546 28.6025 262.506 28.7216 262.453 28.9333H262.253C262.226 29.0127 262.186 29.1582 262.133 29.3699C262.026 29.3964 261.879 29.4625 261.692 29.5684C261.666 29.6742 261.625 29.7933 261.572 29.9256C261.385 29.9521 261.118 30.0182 260.771 30.1241C260.718 30.2299 260.651 30.349 260.571 30.4813C260.278 30.4548 259.864 30.4548 259.33 30.4813C259.117 30.5872 258.77 30.7327 258.29 30.9179L258.209 31.1561C257.969 31.1826 257.702 31.2222 257.409 31.2752C257.275 31.3546 257.089 31.4604 256.848 31.5927C256.715 31.5927 256.528 31.5927 256.288 31.5927C254.046 31.9103 252.805 32.0558 252.565 32.0293C252.138 31.8441 251.538 31.6192 250.764 31.3546C250.577 31.381 250.323 31.381 250.003 31.3546C249.896 31.2222 249.749 31.0767 249.563 30.9179C249.162 30.865 248.629 30.6798 247.961 30.3622C247.828 30.1505 247.641 29.8859 247.401 29.5684C247.081 29.4625 246.667 29.2508 246.16 28.9333C246.107 28.6687 246 28.2982 245.84 27.8219C245.466 27.2132 245.052 26.2738 244.599 25.0036C244.679 24.739 244.759 24.3024 244.839 23.6938C244.705 23.4292 244.545 23.0851 244.358 22.6618C244.412 22.3707 244.452 21.934 244.479 21.3519C244.399 21.0873 244.332 20.8226 244.278 20.558C244.305 20.4257 244.332 20.3199 244.358 20.2405C244.332 19.9758 244.305 19.7906 244.278 19.6848C244.358 19.2084 244.385 18.9438 244.358 18.8909C244.358 18.7851 244.265 18.613 244.078 18.3749C243.891 18.1367 243.798 17.8986 243.798 17.6604C243.825 17.1576 244.012 16.6416 244.358 16.1124L244.599 15.9933C244.652 15.8081 244.652 15.5434 244.599 15.1994V14.8819C244.679 14.5379 244.826 14.0483 245.039 13.4132C245.333 12.884 245.746 12.4871 246.28 12.2224V12.1034H246.52C246.627 11.7329 246.854 11.2037 247.201 10.5156C247.307 10.4892 247.494 10.423 247.761 10.3172C247.868 10.079 248.081 9.7747 248.402 9.40423C248.562 9.40423 248.749 9.37777 248.962 9.32484C249.149 9.13961 249.416 8.91468 249.763 8.65006C250.323 8.4119 251.004 8.26636 251.804 8.21344ZM255.727 13.0957C255.674 13.3603 255.554 13.8102 255.367 14.4453C255.314 14.4717 255.167 14.5114 254.927 14.5643C254.713 14.5379 254.326 14.4585 253.766 14.3262C253.232 14.1939 252.792 14.1277 252.445 14.1277C252.231 14.1277 252.018 14.1542 251.804 14.2071C251.538 14.3923 251.164 14.6173 250.683 14.8819C250.55 14.8554 250.39 14.8554 250.203 14.8819V15.12C250.016 15.3582 249.683 15.689 249.202 16.1124C249.016 16.1388 248.829 16.1785 248.642 16.2315C248.562 16.3373 248.548 16.5225 248.602 16.7872C248.629 17.0518 248.642 17.1973 248.642 17.2238C248.508 17.2767 248.375 17.3693 248.242 17.5016C248.135 17.6339 248.081 17.8986 248.081 18.2955C248.081 18.7189 248.081 18.9571 248.081 19.01C247.975 19.0894 247.828 19.2349 247.641 19.4466C247.748 19.5525 247.935 19.698 248.202 19.8832C247.775 21.1269 247.628 21.9473 247.761 22.3442C247.788 22.4765 247.948 22.6088 248.242 22.7411C248.535 22.8734 248.709 22.9661 248.762 23.019C248.975 23.4953 249.242 24.0113 249.563 24.567C249.723 24.6729 250.03 24.7126 250.483 24.6861C250.937 24.6332 251.257 24.6332 251.444 24.6861C251.818 24.9772 252.085 25.2021 252.245 25.3609C252.218 25.4667 252.218 25.5726 252.245 25.6784C252.378 25.7049 252.605 25.7446 252.925 25.7975C253.459 26.0357 254.206 26.3003 255.167 26.5914C255.327 26.5385 255.594 26.4988 255.968 26.4723C256.181 26.5781 256.475 26.7237 256.848 26.9089C256.982 26.6972 257.209 26.4061 257.529 26.0357C257.849 25.9034 258.223 25.7181 258.65 25.48C258.65 25.48 258.65 25.3609 258.65 25.1227C258.783 25.0963 258.85 25.0036 258.85 24.8449C258.85 24.792 258.823 24.6332 258.77 24.3686C258.717 24.1304 258.717 23.9319 258.77 23.7732C259.01 23.6409 259.264 23.4292 259.53 23.1381C259.53 23.1381 259.53 22.7676 259.53 22.0267C259.637 22.0002 259.757 21.9208 259.891 21.7885C259.891 21.7356 259.851 21.6562 259.771 21.5503C259.664 21.5768 259.517 21.5768 259.33 21.5503C259.117 21.4974 258.97 21.3651 258.89 21.1534C258.837 20.9152 258.797 20.6771 258.77 20.4389C258.797 20.4389 258.823 20.3728 258.85 20.2405C259.01 20.2405 259.277 20.2008 259.651 20.1214C259.677 19.7245 259.637 19.1688 259.53 18.4543C259.29 18.269 259.037 18.0838 258.77 17.8986C258.69 17.6604 258.717 17.409 258.85 17.1444C259.01 16.8798 259.09 16.721 259.09 16.6681C259.09 16.6152 259.023 16.3638 258.89 15.9139C258.783 15.4376 258.703 15.173 258.65 15.12C258.49 15.0671 258.303 14.9877 258.089 14.8819C258.036 14.6967 257.916 14.4717 257.729 14.2071C257.489 14.1806 257.089 14.0748 256.528 13.8896C256.501 13.7837 256.461 13.6646 256.408 13.5323C256.248 13.4529 256.021 13.3074 255.727 13.0957Z" fill="black"/>
<path d="M274.976 0.0763343C275.11 0.0498709 275.457 0.116026 276.017 0.2748C276.604 0.433572 276.951 0.565883 277.058 0.671731C277.192 0.77758 277.352 0.909891 277.539 1.06866C277.832 1.12159 278.072 1.06866 278.259 0.90989C278.446 0.724656 278.553 0.632039 278.579 0.632039C278.766 0.579114 278.98 0.592344 279.22 0.671731C279.38 0.724655 279.54 0.79081 279.7 0.870197C279.674 1.00251 279.674 1.18774 279.7 1.4259C279.834 1.53175 279.98 1.67729 280.141 1.86253C280.301 2.15361 280.301 2.66962 280.141 3.41056C280.327 3.48995 280.634 3.60903 281.061 3.7678C281.035 3.79426 281.035 3.90011 281.061 4.08534C280.901 4.08534 280.674 4.12504 280.381 4.20442C280.221 4.38966 280.034 4.61459 279.82 4.87921C280.141 5.56722 280.327 6.12293 280.381 6.54632C280.327 6.65217 280.287 6.83741 280.261 7.10203L280.381 7.30049C280.221 7.56511 280.061 7.86943 279.9 8.21344C279.9 8.2399 279.94 8.35898 280.02 8.57067C280.127 8.75591 280.181 8.88822 280.181 8.9676C280.181 9.04699 280.167 9.08669 280.141 9.08669C279.954 9.219 279.914 9.48362 280.02 9.88055C280.234 10.0393 280.461 10.2246 280.701 10.4363C280.728 10.5686 280.808 10.7935 280.941 11.111C280.808 11.164 280.621 11.2433 280.381 11.3492C280.621 12.3283 280.688 13.2148 280.581 14.0086C280.474 14.1939 280.367 14.4188 280.261 14.6834C280.287 15.001 280.287 15.4773 280.261 16.1124C280.261 16.1124 280.221 16.1653 280.141 16.2712C280.061 16.3505 280.02 16.4432 280.02 16.549C280.154 16.6549 280.301 16.8136 280.461 17.0253C280.461 17.1047 280.461 17.2502 280.461 17.4619L280.701 17.581C280.701 17.6869 280.701 17.8324 280.701 18.0176C280.888 18.3087 281.115 18.7586 281.382 19.3672C281.355 19.4466 281.315 19.5525 281.261 19.6848C281.128 19.7112 280.941 19.7906 280.701 19.9229C280.674 20.4257 280.714 21.0873 280.821 21.9076C280.955 21.9605 281.141 22.0399 281.382 22.1457C281.515 22.3574 281.742 22.6485 282.062 23.019C282.196 23.0455 282.342 23.1248 282.502 23.2571C282.502 23.4688 282.502 23.7335 282.502 24.051V24.2495C282.689 24.567 283.29 25.1624 284.304 26.0357C284.304 26.1415 284.344 26.2474 284.424 26.3532C284.637 26.4591 284.878 26.512 285.145 26.512C285.358 26.512 285.678 26.4855 286.105 26.4326C286.532 26.3532 286.866 26.3135 287.106 26.3135C287.32 26.3135 287.506 26.3268 287.667 26.3532C287.907 26.512 288.174 26.6708 288.467 26.8295C288.734 26.856 289.068 26.8825 289.468 26.9089C289.575 27.1471 289.681 27.4514 289.788 27.8219C289.788 27.9542 289.788 28.1394 289.788 28.3776C289.948 28.457 290.108 28.5628 290.269 28.6951C290.295 28.801 290.295 29.092 290.269 29.5684C290.215 30.0447 290.175 30.3225 290.148 30.4019C289.935 30.4813 289.628 30.6269 289.228 30.8385C289.174 30.9444 289.068 31.0899 288.908 31.2752C288.294 31.6456 287.24 31.8309 285.745 31.8309C285.585 31.8309 285.265 31.7912 284.784 31.7118C284.304 31.6324 283.957 31.5927 283.743 31.5927C283.663 31.6192 283.437 31.6721 283.063 31.7515C282.689 31.8309 282.396 31.8573 282.182 31.8309L281.822 31.5927C281.555 31.6192 281.141 31.6192 280.581 31.5927C280.341 31.5398 280.087 31.4736 279.82 31.3943C279.367 31.5001 278.579 31.5663 277.458 31.5927L276.978 31.3943C276.284 31.2619 275.51 31.3016 274.656 31.5133C272.575 31.9367 270.84 32.0426 269.452 31.8309C269.159 31.6986 268.758 31.5133 268.251 31.2752C267.958 31.1958 267.611 31.0502 267.21 30.8385C266.863 30.3358 266.823 29.5948 267.09 28.6157C267.437 27.7954 267.637 27.3455 267.691 27.2662C267.771 27.1868 268.571 27.028 270.093 26.7898C271.614 26.5252 272.561 26.4194 272.935 26.4723L273.175 26.7105C273.282 26.6575 273.429 26.6178 273.615 26.5914C273.669 26.5914 273.909 26.6575 274.336 26.7898C274.683 26.8692 274.976 26.8825 275.217 26.8295C275.35 26.7766 275.524 26.5649 275.737 26.1944C275.977 25.7975 276.177 25.5594 276.338 25.48H276.418C276.418 25.48 276.418 25.2153 276.418 24.6861C276.391 24.6596 276.324 24.6332 276.217 24.6067C276.217 24.3156 276.217 23.9055 276.217 23.3762C276.191 23.2968 276.124 23.0455 276.017 22.6221C275.911 22.3045 275.857 22.0267 275.857 21.7885L276.097 21.471C276.071 21.2328 276.071 20.8623 276.097 20.3595C276.204 20.1478 276.311 19.8832 276.418 19.5657C276.364 19.354 276.364 18.9835 276.418 18.4543L276.658 18.3352C276.711 18.097 276.738 17.8192 276.738 17.5016C276.738 17.1312 276.685 16.6152 276.578 15.9536C276.498 15.2656 276.444 14.8025 276.418 14.5643C276.391 13.3206 276.471 12.3548 276.658 11.6667C276.818 11.3492 276.858 11.2037 276.778 11.2301C276.671 10.8596 276.551 10.4495 276.418 9.99963C276.391 9.68208 276.458 9.391 276.618 9.12638C276.778 8.8353 276.871 8.67652 276.898 8.65006C276.898 8.65006 276.898 8.2002 276.898 7.30049C276.845 7.30049 276.765 7.27403 276.658 7.22111C276.684 6.8771 276.684 6.38755 276.658 5.75246C276.524 5.62015 276.378 5.43491 276.217 5.19675V4.99829C276.191 4.94536 276.071 4.86598 275.857 4.76013C275.75 4.68074 275.644 4.60135 275.537 4.52197C275.537 4.52197 275.404 4.42935 275.137 4.24412C274.896 4.03242 274.576 3.83395 274.176 3.64872C274.042 3.62226 273.816 3.68841 273.495 3.84718C273.175 4.00596 272.988 4.08534 272.935 4.08534C272.508 4.19119 272.134 4.23089 271.814 4.20442L271.494 3.96627C271.093 4.04565 270.573 4.12504 269.932 4.20442C269.452 4.20442 268.945 4.05888 268.411 3.7678C267.878 3.47672 267.517 3.1724 267.33 2.85486C267.33 2.74901 267.29 2.56377 267.21 2.29915C267.184 2.21977 267.144 2.11392 267.09 1.98161C267.144 1.55821 267.41 1.2142 267.891 0.949582V0.751117C267.998 0.724655 268.184 0.684962 268.451 0.632039C269.225 0.340954 269.826 0.235106 270.253 0.314493L270.493 0.512958C270.867 0.618807 271.387 0.618807 272.054 0.512958C272.161 0.460035 272.294 0.40711 272.454 0.354185C272.615 0.274798 272.775 0.261568 272.935 0.314493C272.988 0.314493 273.108 0.40711 273.295 0.592344C273.509 0.777579 273.695 0.870197 273.856 0.870197L273.976 0.632039C274.056 0.632039 274.163 0.632039 274.296 0.632039C274.403 0.446803 274.63 0.261568 274.976 0.0763343ZM291.269 28.2585C291.349 28.629 291.43 29.0391 291.51 29.489C291.456 29.5154 291.376 29.6213 291.269 29.8065C290.816 29.7536 290.629 29.7271 290.709 29.7271C290.602 29.6478 290.482 29.5684 290.349 29.489C290.375 29.3037 290.455 29.0391 290.589 28.6951C290.696 28.7216 290.816 28.7216 290.949 28.6951C291.003 28.5893 291.109 28.4437 291.269 28.2585Z" fill="black"/>
<path d="M301.013 0.0763343C301.146 0.0498709 301.493 0.116026 302.054 0.2748C302.641 0.433572 302.988 0.565883 303.094 0.671731C303.228 0.77758 303.388 0.909891 303.575 1.06866C303.868 1.12159 304.108 1.06866 304.295 0.90989C304.482 0.724656 304.589 0.632039 304.616 0.632039C304.802 0.579114 305.016 0.592344 305.256 0.671731C305.416 0.724655 305.576 0.79081 305.736 0.870197C305.71 1.00251 305.71 1.18774 305.736 1.4259C305.87 1.53175 306.017 1.67729 306.177 1.86253C306.337 2.15361 306.337 2.66962 306.177 3.41056C306.364 3.48995 306.671 3.60903 307.098 3.7678C307.071 3.79426 307.071 3.90011 307.098 4.08534C306.937 4.08534 306.711 4.12504 306.417 4.20442C306.257 4.38966 306.07 4.61459 305.857 4.87921C306.177 5.56722 306.364 6.12293 306.417 6.54632C306.364 6.65217 306.324 6.83741 306.297 7.10203L306.417 7.30049C306.257 7.56511 306.097 7.86943 305.937 8.21344C305.937 8.2399 305.977 8.35898 306.057 8.57067C306.163 8.75591 306.217 8.88822 306.217 8.9676C306.217 9.04699 306.203 9.08669 306.177 9.08669C305.99 9.219 305.95 9.48362 306.057 9.88055C306.27 10.0393 306.497 10.2246 306.737 10.4363C306.764 10.5686 306.844 10.7935 306.977 11.111C306.844 11.164 306.657 11.2433 306.417 11.3492C306.657 12.3283 306.724 13.2148 306.617 14.0086C306.51 14.1939 306.404 14.4188 306.297 14.6834C306.324 15.001 306.324 15.4773 306.297 16.1124C306.297 16.1124 306.257 16.1653 306.177 16.2712C306.097 16.3505 306.057 16.4432 306.057 16.549C306.19 16.6549 306.337 16.8136 306.497 17.0253C306.497 17.1047 306.497 17.2502 306.497 17.4619L306.737 17.581C306.737 17.6869 306.737 17.8324 306.737 18.0176C306.924 18.3087 307.151 18.7586 307.418 19.3672C307.391 19.4466 307.351 19.5525 307.298 19.6848C307.164 19.7112 306.977 19.7906 306.737 19.9229C306.711 20.4257 306.751 21.0873 306.857 21.9076C306.991 21.9605 307.178 22.0399 307.418 22.1457C307.551 22.3574 307.778 22.6485 308.098 23.019C308.232 23.0455 308.379 23.1248 308.539 23.2571C308.539 23.4688 308.539 23.7335 308.539 24.051V24.2495C308.725 24.567 309.326 25.1624 310.34 26.0357C310.34 26.1415 310.38 26.2474 310.46 26.3532C310.674 26.4591 310.914 26.512 311.181 26.512C311.394 26.512 311.715 26.4855 312.142 26.4326C312.569 26.3532 312.902 26.3135 313.142 26.3135C313.356 26.3135 313.543 26.3268 313.703 26.3532C313.943 26.512 314.21 26.6708 314.503 26.8295C314.77 26.856 315.104 26.8825 315.504 26.9089C315.611 27.1471 315.718 27.4514 315.824 27.8219C315.824 27.9542 315.824 28.1394 315.824 28.3776C315.985 28.457 316.145 28.5628 316.305 28.6951C316.332 28.801 316.332 29.092 316.305 29.5684C316.251 30.0447 316.211 30.3225 316.185 30.4019C315.971 30.4813 315.664 30.6269 315.264 30.8385C315.211 30.9444 315.104 31.0899 314.944 31.2752C314.33 31.6456 313.276 31.8309 311.781 31.8309C311.621 31.8309 311.301 31.7912 310.82 31.7118C310.34 31.6324 309.993 31.5927 309.78 31.5927C309.7 31.6192 309.473 31.6721 309.099 31.7515C308.725 31.8309 308.432 31.8573 308.218 31.8309L307.858 31.5927C307.591 31.6192 307.178 31.6192 306.617 31.5927C306.377 31.5398 306.123 31.4736 305.857 31.3943C305.403 31.5001 304.616 31.5663 303.495 31.5927L303.014 31.3943C302.32 31.2619 301.546 31.3016 300.692 31.5133C298.611 31.9367 296.876 32.0426 295.488 31.8309C295.195 31.6986 294.794 31.5133 294.287 31.2752C293.994 31.1958 293.647 31.0502 293.247 30.8385C292.9 30.3358 292.86 29.5948 293.126 28.6157C293.473 27.7954 293.674 27.3455 293.727 27.2662C293.807 27.1868 294.608 27.028 296.129 26.7898C297.65 26.5252 298.597 26.4194 298.971 26.4723L299.211 26.7105C299.318 26.6575 299.465 26.6178 299.652 26.5914C299.705 26.5914 299.945 26.6575 300.372 26.7898C300.719 26.8692 301.013 26.8825 301.253 26.8295C301.386 26.7766 301.56 26.5649 301.773 26.1944C302.014 25.7975 302.214 25.5594 302.374 25.48H302.454C302.454 25.48 302.454 25.2153 302.454 24.6861C302.427 24.6596 302.36 24.6332 302.254 24.6067C302.254 24.3156 302.254 23.9055 302.254 23.3762C302.227 23.2968 302.16 23.0455 302.054 22.6221C301.947 22.3045 301.893 22.0267 301.893 21.7885L302.134 21.471C302.107 21.2328 302.107 20.8623 302.134 20.3595C302.24 20.1478 302.347 19.8832 302.454 19.5657C302.4 19.354 302.4 18.9835 302.454 18.4543L302.694 18.3352C302.747 18.097 302.774 17.8192 302.774 17.5016C302.774 17.1312 302.721 16.6152 302.614 15.9536C302.534 15.2656 302.481 14.8025 302.454 14.5643C302.427 13.3206 302.507 12.3548 302.694 11.6667C302.854 11.3492 302.894 11.2037 302.814 11.2301C302.707 10.8596 302.587 10.4495 302.454 9.99963C302.427 9.68208 302.494 9.391 302.654 9.12638C302.814 8.8353 302.908 8.67652 302.934 8.65006C302.934 8.65006 302.934 8.2002 302.934 7.30049C302.881 7.30049 302.801 7.27403 302.694 7.22111C302.721 6.8771 302.721 6.38755 302.694 5.75246C302.561 5.62015 302.414 5.43491 302.254 5.19675V4.99829C302.227 4.94536 302.107 4.86598 301.893 4.76013C301.787 4.68074 301.68 4.60135 301.573 4.52197C301.573 4.52197 301.44 4.42935 301.173 4.24412C300.933 4.03242 300.612 3.83395 300.212 3.64872C300.079 3.62226 299.852 3.68841 299.532 3.84718C299.211 4.00596 299.024 4.08534 298.971 4.08534C298.544 4.19119 298.17 4.23089 297.85 4.20442L297.53 3.96627C297.13 4.04565 296.609 4.12504 295.969 4.20442C295.488 4.20442 294.981 4.05888 294.448 3.7678C293.914 3.47672 293.553 3.1724 293.367 2.85486C293.367 2.74901 293.327 2.56377 293.247 2.29915C293.22 2.21977 293.18 2.11392 293.126 1.98161C293.18 1.55821 293.447 1.2142 293.927 0.949582V0.751117C294.034 0.724655 294.221 0.684962 294.488 0.632039C295.262 0.340954 295.862 0.235106 296.289 0.314493L296.529 0.512958C296.903 0.618807 297.423 0.618807 298.09 0.512958C298.197 0.460035 298.331 0.40711 298.491 0.354185C298.651 0.274798 298.811 0.261568 298.971 0.314493C299.024 0.314493 299.145 0.40711 299.331 0.592344C299.545 0.777579 299.732 0.870197 299.892 0.870197L300.012 0.632039C300.092 0.632039 300.199 0.632039 300.332 0.632039C300.439 0.446803 300.666 0.261568 301.013 0.0763343ZM317.306 28.2585C317.386 28.629 317.466 29.0391 317.546 29.489C317.492 29.5154 317.412 29.6213 317.306 29.8065C316.852 29.7536 316.665 29.7271 316.745 29.7271C316.638 29.6478 316.518 29.5684 316.385 29.489C316.412 29.3037 316.492 29.0391 316.625 28.6951C316.732 28.7216 316.852 28.7216 316.985 28.6951C317.039 28.5893 317.146 28.4437 317.306 28.2585Z" fill="black"/>
<path d="M327.489 8.21344C327.516 8.18697 328.263 8.21344 329.731 8.29282C329.998 8.26636 330.372 8.2399 330.852 8.21344C331.146 8.34575 331.519 8.49129 331.973 8.65006C332.16 8.51775 332.493 8.39867 332.974 8.29282C333.267 8.31928 333.561 8.49129 333.854 8.80883C334.148 9.12638 334.308 9.29838 334.335 9.32484C334.495 9.40423 334.695 9.44392 334.935 9.44392C335.282 9.47039 335.536 9.49685 335.696 9.52331C335.776 9.62916 335.883 9.74824 336.016 9.88055C336.096 9.85409 336.203 9.85409 336.336 9.88055C336.47 9.95994 336.577 10.1452 336.657 10.4363C336.763 10.7009 336.857 10.8993 336.937 11.0316C337.044 11.1375 337.297 11.2566 337.697 11.3889C338.098 11.4947 338.365 11.627 338.498 11.7858C338.631 11.9181 338.752 12.196 338.858 12.6194C338.992 13.0163 339.099 13.2809 339.179 13.4132C339.392 13.5985 339.646 13.8631 339.939 14.2071C339.886 14.313 339.846 14.432 339.819 14.5643C340.193 14.9083 340.42 15.2391 340.5 15.5567C340.5 15.7154 340.5 15.9404 340.5 16.2315H340.74C340.686 16.2844 340.646 16.3505 340.62 16.4299C340.646 16.4564 340.726 16.5755 340.86 16.7872C341.047 18.0838 341.047 18.9703 340.86 19.4466C340.726 19.5525 340.606 19.6583 340.5 19.7641C340.473 20.0023 340.5 20.2934 340.58 20.6374C340.686 20.9814 340.74 21.1799 340.74 21.2328C340.66 21.5239 340.58 21.8943 340.5 22.3442C340.633 22.5294 340.673 22.675 340.62 22.7808C340.406 22.8338 340.179 23.019 339.939 23.3365C339.912 23.6012 340.006 23.9584 340.219 24.4082C340.433 24.8581 340.526 25.2153 340.5 25.48C340.5 25.6652 340.393 25.8769 340.179 26.1151C339.912 26.4591 339.766 26.6443 339.739 26.6708C339.659 26.9883 339.472 27.4382 339.179 28.0203C338.965 28.1262 338.658 28.3114 338.258 28.576C338.231 28.6025 338.191 28.7216 338.138 28.9333H337.938C337.911 29.0127 337.871 29.1582 337.817 29.3699C337.711 29.3964 337.564 29.4625 337.377 29.5684C337.35 29.6742 337.31 29.7933 337.257 29.9256C337.07 29.9521 336.803 30.0182 336.456 30.1241C336.403 30.2299 336.336 30.349 336.256 30.4813C335.963 30.4548 335.549 30.4548 335.015 30.4813C334.802 30.5872 334.455 30.7327 333.974 30.9179L333.894 31.1561C333.654 31.1826 333.387 31.2222 333.094 31.2752C332.96 31.3546 332.773 31.4604 332.533 31.5927C332.4 31.5927 332.213 31.5927 331.973 31.5927C329.731 31.9103 328.49 32.0558 328.25 32.0293C327.823 31.8441 327.222 31.6192 326.448 31.3546C326.262 31.381 326.008 31.381 325.688 31.3546C325.581 31.2222 325.434 31.0767 325.248 30.9179C324.847 30.865 324.313 30.6798 323.646 30.3622C323.513 30.1505 323.326 29.8859 323.086 29.5684C322.766 29.4625 322.352 29.2508 321.845 28.9333C321.791 28.6687 321.685 28.2982 321.525 27.8219C321.151 27.2132 320.737 26.2738 320.284 25.0036C320.364 24.739 320.444 24.3024 320.524 23.6938C320.39 23.4292 320.23 23.0851 320.043 22.6618C320.097 22.3707 320.137 21.934 320.164 21.3519C320.083 21.0873 320.017 20.8226 319.963 20.558C319.99 20.4257 320.017 20.3199 320.043 20.2405C320.017 19.9758 319.99 19.7906 319.963 19.6848C320.043 19.2084 320.07 18.9438 320.043 18.8909C320.043 18.7851 319.95 18.613 319.763 18.3749C319.576 18.1367 319.483 17.8986 319.483 17.6604C319.51 17.1576 319.696 16.6416 320.043 16.1124L320.284 15.9933C320.337 15.8081 320.337 15.5434 320.284 15.1994V14.8819C320.364 14.5379 320.51 14.0483 320.724 13.4132C321.018 12.884 321.431 12.4871 321.965 12.2224V12.1034H322.205C322.312 11.7329 322.539 11.2037 322.886 10.5156C322.992 10.4892 323.179 10.423 323.446 10.3172C323.553 10.079 323.766 9.7747 324.087 9.40423C324.247 9.40423 324.434 9.37777 324.647 9.32484C324.834 9.13961 325.101 8.91468 325.448 8.65006C326.008 8.4119 326.689 8.26636 327.489 8.21344ZM331.412 13.0957C331.359 13.3603 331.239 13.8102 331.052 14.4453C330.999 14.4717 330.852 14.5114 330.612 14.5643C330.398 14.5379 330.011 14.4585 329.451 14.3262C328.917 14.1939 328.477 14.1277 328.13 14.1277C327.916 14.1277 327.703 14.1542 327.489 14.2071C327.222 14.3923 326.849 14.6173 326.368 14.8819C326.235 14.8554 326.075 14.8554 325.888 14.8819V15.12C325.701 15.3582 325.368 15.689 324.887 16.1124C324.7 16.1388 324.514 16.1785 324.327 16.2315C324.247 16.3373 324.233 16.5225 324.287 16.7872C324.313 17.0518 324.327 17.1973 324.327 17.2238C324.193 17.2767 324.06 17.3693 323.926 17.5016C323.82 17.6339 323.766 17.8986 323.766 18.2955C323.766 18.7189 323.766 18.9571 323.766 19.01C323.66 19.0894 323.513 19.2349 323.326 19.4466C323.433 19.5525 323.62 19.698 323.886 19.8832C323.459 21.1269 323.313 21.9473 323.446 22.3442C323.473 22.4765 323.633 22.6088 323.926 22.7411C324.22 22.8734 324.394 22.9661 324.447 23.019C324.66 23.4953 324.927 24.0113 325.248 24.567C325.408 24.6729 325.715 24.7126 326.168 24.6861C326.622 24.6332 326.942 24.6332 327.129 24.6861C327.503 24.9772 327.77 25.2021 327.93 25.3609C327.903 25.4667 327.903 25.5726 327.93 25.6784C328.063 25.7049 328.29 25.7446 328.61 25.7975C329.144 26.0357 329.891 26.3003 330.852 26.5914C331.012 26.5385 331.279 26.4988 331.653 26.4723C331.866 26.5781 332.16 26.7237 332.533 26.9089C332.667 26.6972 332.894 26.4061 333.214 26.0357C333.534 25.9034 333.908 25.7181 334.335 25.48C334.335 25.48 334.335 25.3609 334.335 25.1227C334.468 25.0963 334.535 25.0036 334.535 24.8449C334.535 24.792 334.508 24.6332 334.455 24.3686C334.401 24.1304 334.401 23.9319 334.455 23.7732C334.695 23.6409 334.949 23.4292 335.215 23.1381C335.215 23.1381 335.215 22.7676 335.215 22.0267C335.322 22.0002 335.442 21.9208 335.576 21.7885C335.576 21.7356 335.536 21.6562 335.456 21.5503C335.349 21.5768 335.202 21.5768 335.015 21.5503C334.802 21.4974 334.655 21.3651 334.575 21.1534C334.522 20.9152 334.482 20.6771 334.455 20.4389C334.482 20.4389 334.508 20.3728 334.535 20.2405C334.695 20.2405 334.962 20.2008 335.336 20.1214C335.362 19.7245 335.322 19.1688 335.215 18.4543C334.975 18.269 334.722 18.0838 334.455 17.8986C334.375 17.6604 334.401 17.409 334.535 17.1444C334.695 16.8798 334.775 16.721 334.775 16.6681C334.775 16.6152 334.708 16.3638 334.575 15.9139C334.468 15.4376 334.388 15.173 334.335 15.12C334.175 15.0671 333.988 14.9877 333.774 14.8819C333.721 14.6967 333.601 14.4717 333.414 14.2071C333.174 14.1806 332.773 14.0748 332.213 13.8896C332.186 13.7837 332.146 13.6646 332.093 13.5323C331.933 13.4529 331.706 13.3074 331.412 13.0957Z" fill="black"/>
</svg>
